<?xml version="1.0" encoding="UTF-8"?>
<svg id="Layer_1" xmlns="http://www.w3.org/2000/svg" xmlns:xlink="http://www.w3.org/1999/xlink" viewBox="0 0 1125 2436">
  <defs>
    <style>
      .cls-1 {
        stroke-width: 1.3px;
      }

      .cls-1, .cls-2, .cls-3 {
        fill: none;
      }

      .cls-1, .cls-3 {
        stroke: #50473b;
      }

      .cls-1, .cls-3, .cls-4 {
        stroke-miterlimit: 10;
      }

      .cls-3 {
        stroke-width: 2px;
      }

      .cls-5 {
        fill: #50473b;
      }

      .cls-4 {
        fill: url(#Rio);
        opacity: .21;
        stroke: url(#Rio-2);
        stroke-width: 1.2px;
      }
    </style>
    <pattern id="Rio" x="0" y="0" width="360.06" height="530.11" patternTransform="translate(422.67 335.09)" patternUnits="userSpaceOnUse" viewBox="0 0 360.06 530.11">
      <g>
        <rect class="cls-2" y="0" width="360.06" height="530.11"/>
        <g>
          <path class="cls-3" d="M279.36,473.05c17.85-15.29,8.77-46.45-8.86-58.77-24.43-18.79-67.68-10.04-78.12,20.11-3.25,9.88-.6,20.17,7.41,27.02,6.74,6.1,17.76,9.87,27.5,12.26,16.65,3.77,37.69,10.31,51.92-.51l.15-.12Z"/>
          <circle class="cls-5" cx="227.59" cy="433.02" r="3.31"/>
          <circle class="cls-5" cx="255.91" cy="445.28" r="3.5"/>
          <path class="cls-1" d="M244.3,452.07l-14.64-4.58c-.96-.3-1.49-1.32-1.19-2.28l.31-1c.3-.96,1.32-1.49,2.28-1.19l14.64,4.58c.96.3,1.49,1.32,1.19,2.28l-.31,1c-.3.96-1.32,1.49-2.28,1.19Z"/>
          <path class="cls-1" d="M242.91,456.55l-14.64-4.58c-.96-.3-1.49-1.32-1.19-2.28l.31-1c.3-.96,1.32-1.49,2.28-1.19l14.64,4.58c.96.3,1.49,1.32,1.19,2.28l-.31,1c-.3.96-1.32,1.49-2.28,1.19Z"/>
          <path class="cls-5" d="M233.2,428.52l-8.68-3.22c-.34-.13-.52-.51-.39-.85l.3-.81c.13-.34.51-.52.85-.39l8.68,3.22c.34.13.52.51.39.85l-.3.81c-.13.34-.51.52-.85.39Z"/>
          <path class="cls-5" d="M264.13,441.86l-8.5-4.14c-.33-.16-.47-.56-.31-.89l.37-.75c.16-.33.56-.47.89-.31l8.5,4.14c.33.16.47.56.31.89l-.37.75c-.16.33-.56.47-.89.31Z"/>
        </g>
        <g>
          <path class="cls-3" d="M99.33,473.05c17.85-15.29,8.77-46.45-8.86-58.77-24.43-18.79-67.68-10.04-78.12,20.11-3.25,9.88-.6,20.17,7.41,27.02,6.74,6.1,17.76,9.87,27.5,12.26,16.65,3.77,37.69,10.31,51.92-.51l.15-.12Z"/>
          <circle class="cls-5" cx="47.56" cy="433.02" r="3.31"/>
          <circle class="cls-5" cx="75.88" cy="445.28" r="3.5"/>
          <path class="cls-1" d="M64.28,452.07l-14.64-4.58c-.96-.3-1.49-1.32-1.19-2.28l.31-1c.3-.96,1.32-1.49,2.28-1.19l14.64,4.58c.96.3,1.49,1.32,1.19,2.28l-.31,1c-.3.96-1.32,1.49-2.28,1.19Z"/>
          <path class="cls-1" d="M62.88,456.55l-14.64-4.58c-.96-.3-1.49-1.32-1.19-2.28l.31-1c.3-.96,1.32-1.49,2.28-1.19l14.64,4.58c.96.3,1.49,1.32,1.19,2.28l-.31,1c-.3.96-1.32,1.49-2.28,1.19Z"/>
          <path class="cls-5" d="M53.17,428.52l-8.68-3.22c-.34-.13-.52-.51-.39-.85l.3-.81c.13-.34.51-.52.85-.39l8.68,3.22c.34.13.52.51.39.85l-.3.81c-.13.34-.51.52-.85.39Z"/>
          <path class="cls-5" d="M84.1,441.86l-8.5-4.14c-.33-.16-.47-.56-.31-.89l.37-.75c.16-.33.56-.47.89-.31l8.5,4.14c.33.16.47.56.31.89l-.37.75c-.16.33-.56.47-.89.31Z"/>
        </g>
        <g>
          <path class="cls-3" d="M399.38,296.35c17.85-15.29,8.77-46.45-8.86-58.77-24.43-18.79-67.68-10.04-78.12,20.11-3.25,9.88-.6,20.17,7.41,27.02,6.74,6.1,17.76,9.87,27.5,12.26,16.65,3.77,37.69,10.31,51.92-.51l.15-.12Z"/>
          <circle class="cls-5" cx="347.61" cy="256.32" r="3.31"/>
          <path class="cls-1" d="M364.32,275.37l-14.64-4.58c-.96-.3-1.49-1.32-1.19-2.28l.31-1c.3-.96,1.32-1.49,2.28-1.19l14.64,4.58c.96.3,1.49,1.32,1.19,2.28l-.31,1c-.3.96-1.32,1.49-2.28,1.19Z"/>
          <path class="cls-1" d="M362.93,279.84l-14.64-4.58c-.96-.3-1.49-1.32-1.19-2.28l.31-1c.3-.96,1.32-1.49,2.28-1.19l14.64,4.58c.96.3,1.49,1.32,1.19,2.28l-.31,1c-.3.96-1.32,1.49-2.28,1.19Z"/>
          <path class="cls-5" d="M353.22,251.81l-8.68-3.22c-.34-.13-.52-.51-.39-.85l.3-.81c.13-.34.51-.52.85-.39l8.68,3.22c.34.13.52.51.39.85l-.3.81c-.13.34-.51.52-.85.39Z"/>
        </g>
        <g>
          <path class="cls-3" d="M219.35,296.35c17.85-15.29,8.77-46.45-8.86-58.77-24.43-18.79-67.68-10.04-78.12,20.11-3.25,9.88-.6,20.17,7.41,27.02,6.74,6.1,17.76,9.87,27.5,12.26,16.65,3.77,37.69,10.31,51.92-.51l.15-.12Z"/>
          <circle class="cls-5" cx="167.58" cy="256.32" r="3.31"/>
          <circle class="cls-5" cx="195.9" cy="268.58" r="3.5"/>
          <path class="cls-1" d="M184.29,275.37l-14.64-4.58c-.96-.3-1.49-1.32-1.19-2.28l.31-1c.3-.96,1.32-1.49,2.28-1.19l14.64,4.58c.96.3,1.49,1.32,1.19,2.28l-.31,1c-.3.96-1.32,1.49-2.28,1.19Z"/>
          <path class="cls-1" d="M182.9,279.84l-14.64-4.58c-.96-.3-1.49-1.32-1.19-2.28l.31-1c.3-.96,1.32-1.49,2.28-1.19l14.64,4.58c.96.3,1.49,1.32,1.19,2.28l-.31,1c-.3.96-1.32,1.49-2.28,1.19Z"/>
          <path class="cls-5" d="M173.19,251.81l-8.68-3.22c-.34-.13-.52-.51-.39-.85l.3-.81c.13-.34.51-.52.85-.39l8.68,3.22c.34.13.52.51.39.85l-.3.81c-.13.34-.51.52-.85.39Z"/>
          <path class="cls-5" d="M204.12,265.15l-8.5-4.14c-.33-.16-.47-.56-.31-.89l.37-.75c.16-.33.56-.47.89-.31l8.5,4.14c.33.16.47.56.31.89l-.37.75c-.16.33-.56.47-.89.31Z"/>
        </g>
        <g>
          <path class="cls-3" d="M39.32,296.35c17.85-15.29,8.77-46.45-8.86-58.77-24.43-18.79-67.68-10.04-78.12,20.11-3.25,9.88-.6,20.17,7.41,27.02,6.74,6.1,17.76,9.87,27.5,12.26,16.65,3.77,37.69,10.31,51.92-.51l.15-.12Z"/>
          <circle class="cls-5" cx="15.87" cy="268.58" r="3.5"/>
          <path class="cls-1" d="M4.27,275.37l-14.64-4.58c-.96-.3-1.49-1.32-1.19-2.28l.31-1c.3-.96,1.32-1.49,2.28-1.19l14.64,4.58c.96.3,1.49,1.32,1.19,2.28l-.31,1c-.3.96-1.32,1.49-2.28,1.19Z"/>
          <path class="cls-1" d="M2.87,279.84l-14.64-4.58c-.96-.3-1.49-1.32-1.19-2.28l.31-1c.3-.96,1.32-1.49,2.28-1.19l14.64,4.58c.96.3,1.49,1.32,1.19,2.28l-.31,1c-.3.96-1.32,1.49-2.28,1.19Z"/>
          <path class="cls-5" d="M24.09,265.15l-8.5-4.14c-.33-.16-.47-.56-.31-.89l.37-.75c.16-.33.56-.47.89-.31l8.5,4.14c.33.16.47.56.31.89l-.37.75c-.16.33-.56.47-.89.31Z"/>
        </g>
        <g>
          <path class="cls-3" d="M339.37,119.64c17.85-15.29,8.77-46.45-8.86-58.77-24.43-18.79-67.68-10.04-78.12,20.11-3.25,9.88-.6,20.17,7.41,27.02,6.74,6.1,17.76,9.87,27.5,12.26,16.65,3.77,37.69,10.31,51.92-.51l.15-.12Z"/>
          <circle class="cls-5" cx="287.6" cy="79.62" r="3.31"/>
          <circle class="cls-5" cx="315.92" cy="91.88" r="3.5"/>
          <path class="cls-1" d="M304.31,98.67l-14.64-4.58c-.96-.3-1.49-1.32-1.19-2.28l.31-1c.3-.96,1.32-1.49,2.28-1.19l14.64,4.58c.96.3,1.49,1.32,1.19,2.28l-.31,1c-.3.96-1.32,1.49-2.28,1.19Z"/>
          <path class="cls-1" d="M302.92,103.14l-14.64-4.58c-.96-.3-1.49-1.32-1.19-2.28l.31-1c.3-.96,1.32-1.49,2.28-1.19l14.64,4.58c.96.3,1.49,1.32,1.19,2.28l-.31,1c-.3.96-1.32,1.49-2.28,1.19Z"/>
          <path class="cls-5" d="M293.21,75.11l-8.68-3.22c-.34-.13-.52-.51-.39-.85l.3-.81c.13-.34.51-.52.85-.39l8.68,3.22c.34.13.52.51.39.85l-.3.81c-.13.34-.51.52-.85.39Z"/>
          <path class="cls-5" d="M324.14,88.45l-8.5-4.14c-.33-.16-.47-.56-.31-.89l.37-.75c.16-.33.56-.47.89-.31l8.5,4.14c.33.16.47.56.31.89l-.37.75c-.16.33-.56.47-.89.31Z"/>
        </g>
        <g>
          <path class="cls-3" d="M159.34,119.64c17.85-15.29,8.77-46.45-8.86-58.77-24.43-18.79-67.68-10.04-78.12,20.11-3.25,9.88-.6,20.17,7.41,27.02,6.74,6.1,17.76,9.87,27.5,12.26,16.65,3.77,37.69,10.31,51.92-.51l.15-.12Z"/>
          <circle class="cls-5" cx="107.57" cy="79.62" r="3.31"/>
          <circle class="cls-5" cx="135.89" cy="91.88" r="3.5"/>
          <path class="cls-1" d="M124.29,98.67l-14.64-4.58c-.96-.3-1.49-1.32-1.19-2.28l.31-1c.3-.96,1.32-1.49,2.28-1.19l14.64,4.58c.96.3,1.49,1.32,1.19,2.28l-.31,1c-.3.96-1.32,1.49-2.28,1.19Z"/>
          <path class="cls-1" d="M122.89,103.14l-14.64-4.58c-.96-.3-1.49-1.32-1.19-2.28l.31-1c.3-.96,1.32-1.49,2.28-1.19l14.64,4.58c.96.3,1.49,1.32,1.19,2.28l-.31,1c-.3.96-1.32,1.49-2.28,1.19Z"/>
          <path class="cls-5" d="M113.18,75.11l-8.68-3.22c-.34-.13-.52-.51-.39-.85l.3-.81c.13-.34.51-.52.85-.39l8.68,3.22c.34.13.52.51.39.85l-.3.81c-.13.34-.51.52-.85.39Z"/>
          <path class="cls-5" d="M144.11,88.45l-8.5-4.14c-.33-.16-.47-.56-.31-.89l.37-.75c.16-.33.56-.47.89-.31l8.5,4.14c.33.16.47.56.31.89l-.37.75c-.16.33-.56.47-.89.31Z"/>
        </g>
      </g>
    </pattern>
    <pattern id="Rio-2" data-name="Rio" patternTransform="translate(729.52 573.77)" xlink:href="#Rio"/>
  </defs>
  <rect class="cls-4" y="-25.87" width="1125" height="2436"/>
</svg>