<?xml version="1.0" encoding="UTF-8"?>
<svg id="Layer_1" xmlns="http://www.w3.org/2000/svg" viewBox="0 0 466 387">
  <defs>
    <style>
      .cls-1 {
        fill: #fff;
      }

      .cls-2 {
        fill: #e2ded9;
      }

      .cls-3 {
        fill: #50473b;
      }
    </style>
  </defs>
  <g>
    <path class="cls-1" d="M417.38,301.05c1.71-9.25,10.3-15.43,16.08-22.42,8.9-14.09,15.93-28.29,19.23-45.29,6.91-34.39,2.24-72.73-9.64-105.64-19.44-56.4-73.42-92.42-129.66-106.93-27.07-7.31-55.04-10.22-82.95-12.12-25.95-1.37-54.67-4.36-80.09,2.38-17.9,4.74-32.86,16.36-48.17,26.37C54.54,67.76,19.99,96.59,8.23,153.71c-10.26,50.03-5.04,116.75,24.8,159.4,17.23,24.35,43.49,40.89,71.25,50.92,37.48,13.57,77.77,16.31,117.44,18.19,28.25,1.29,57.06,2.5,84.1-6.34,20.03-6.53,39.07-13.77,60.56-10.02,15.56,1.93,30.8,9.06,46.54,9.56,16.12.27,20.94-11.91,17.97-26.06-1.91-9.92-5.53-19.58-9.49-28.86-2.5-6.01-5.22-12.79-4.04-19.26l.03-.18Z"/>
    <path class="cls-3" d="M251.84,386.13c-10.14,0-20.26-.46-30.26-.92-40.99-1.94-80.87-4.8-118.32-18.36-31.54-11.4-56.67-29.38-72.68-52.01C-.66,270.2-4.63,201.45,5.29,153.11c12.59-61.13,52.25-90.81,95.27-118.23,2.59-1.7,5.26-3.5,7.85-5.24,12.72-8.58,25.87-17.45,41.17-21.5,22.52-5.97,46.96-4.5,70.59-3.08,3.52.21,7,.42,10.43.6,25.36,1.73,55.08,4.54,83.58,12.22,64.73,16.7,113.98,57.39,131.71,108.84,12.77,35.37,16.32,74.46,9.74,107.2-3.78,19.45-12.48,34.96-19.63,46.3l-.23.31c-1.61,1.95-3.43,3.84-5.19,5.66-4.71,4.88-9.16,9.49-10.25,15.39l-.03.17c-1.05,5.78,1.67,12.32,3.86,17.58,3.39,7.93,7.55,18.48,9.66,29.44,1.96,9.36.62,17.47-3.79,22.8-2.65,3.2-7.79,6.95-17.18,6.82-9.23-.29-18.23-2.75-26.93-5.12-6.55-1.79-13.32-3.64-19.93-4.46l-.15-.02c-19.02-3.32-36.14,2.33-54.27,8.32-1.61.53-3.22,1.06-4.84,1.59-17.96,5.88-36.47,7.41-54.9,7.41ZM188.63,9.78c-12.87,0-25.55.97-37.51,4.14-14.32,3.8-27.05,12.38-39.36,20.68-2.6,1.75-5.29,3.56-7.95,5.3C52.23,72.79,22.19,100.76,11.16,154.32c-9.66,47.08-5.88,113.91,24.32,157.08,15.29,21.61,39.43,38.84,69.82,49.82,36.66,13.27,76.06,16.09,116.56,18.01,27.63,1.27,56.22,2.57,83.02-6.2,1.61-.53,3.22-1.06,4.82-1.59,18.85-6.23,36.65-12.11,57.12-8.55,7.01.88,13.97,2.78,20.7,4.62,8.36,2.28,17.01,4.65,25.49,4.91,5.59.05,9.78-1.47,12.41-4.65,3.22-3.89,4.12-10.22,2.53-17.8-2.01-10.46-6.03-20.61-9.31-28.3-2.37-5.69-5.6-13.46-4.24-20.97l.03-.19c1.42-7.67,6.71-13.15,11.83-18.46,1.71-1.77,3.33-3.45,4.77-5.17,10.15-16.11,15.93-29.72,18.72-44.1,6.38-31.72,2.91-69.64-9.51-104.05-17.09-49.58-64.78-88.84-127.59-105.04-28.03-7.56-57.38-10.33-82.41-12.04-3.4-.18-6.9-.39-10.43-.6-10.33-.62-20.82-1.25-31.18-1.25Z"/>
  </g>
  <path class="cls-1" d="M417.38,301.05c1.71-9.25,10.3-15.43,16.08-22.42,8.9-14.09,15.93-28.29,19.23-45.29,6.91-34.39,2.24-72.73-9.64-105.64-19.44-56.4-73.42-92.42-129.66-106.93-27.07-7.31-55.04-10.22-82.95-12.12-25.95-1.37-54.67-4.36-80.09,2.38-17.9,4.74-32.86,16.36-48.17,26.37C54.54,67.76,19.99,96.59,8.23,153.71c-10.26,50.03-5.04,116.75,24.8,159.4,17.23,24.35,43.49,40.89,71.25,50.92,37.48,13.57,77.77,16.31,117.44,18.19,28.25,1.29,57.06,2.5,84.1-6.34,20.03-6.53,39.07-13.77,60.56-10.02,15.56,1.93,30.8,9.06,46.54,9.56,16.12.27,20.94-11.91,17.97-26.06-1.91-9.92-5.53-19.58-9.49-28.86-2.5-6.01-5.22-12.79-4.04-19.26l.03-.18Z"/>
  <path class="cls-2" d="M226.6,387c-2.12,0-4.23-.02-6.35-.06-22.88-.16-44.17-4.93-66.71-9.98-9.73-2.18-19.78-4.43-29.91-6.26-5.99-1.09-12.17-2.03-18.14-2.94-8.01-1.22-16.3-2.48-24.32-4.13-49.59-9.4-65.06-38.58-73.94-82.59-5.88-30.47-11.42-65.75-2.73-99.28,3.31-13.61,8.1-27.04,12.74-40.02l.28-.77c1.63-4.46,3.25-8.96,4.87-13.47,5.56-15.46,11.3-31.44,17.79-46.07l.09-.19c11.75-27.08,28.58-45.17,51.42-55.27,20.83-9.54,44.4-13.03,68.74-16.04,14.98-1.77,30.21-3.3,44.95-4.78,4.74-.48,9.47-.95,14.21-1.44,47.64-5.01,96.91-10.2,139.6,22.67,18.5,13.79,34.3,32.42,49.59,50.43l2.73,3.22c1.34,1.62,2.67,3.21,3.99,4.8,18.24,21.92,37.09,44.6,45.35,70.64,7.54,25.14,6.8,53.3-2.17,83.76-9.57,32.48-26.01,59.01-38.12,75.54-17.21,23.26-36,40.33-55.85,50.77-24.2,12.87-53.19,15.63-78.76,18.07-19.39,1.67-39.36,3.38-59.34,3.38ZM45.65,83.86c-6.4,14.43-12.1,30.31-17.62,45.66-1.63,4.52-3.24,9.03-4.87,13.48l-.27.75c-4.59,12.84-9.33,26.11-12.57,39.46-8.38,32.37-2.95,66.87,2.8,96.67,8.6,42.63,22.68,69.05,69.23,77.88,7.91,1.63,16.12,2.88,24.05,4.09,6.02.91,12.25,1.86,18.31,2.97,10.24,1.85,20.36,4.11,30.15,6.31,22.22,4.98,43.2,9.68,65.48,9.83,21.81.42,43.8-1.47,65.07-3.3,24.98-2.38,53.33-5.09,76.49-17.4,19.06-10.02,37.17-26.52,53.83-49.03,14.24-19.44,59.18-88.04,39.4-154-7.89-24.88-26.37-47.1-44.24-68.58-1.33-1.6-2.65-3.19-3.97-4.78l-2.71-3.19c-15.07-17.76-30.65-36.12-48.64-49.53C314.73-.3,266.67,4.76,220.2,9.66c-4.75.49-9.49.96-14.23,1.44-14.71,1.48-29.92,3.01-44.83,4.77-23.84,2.95-46.91,6.36-67,15.56-21.44,9.48-37.26,26.56-48.4,52.24l-.09.21Z"/>
  <path class="cls-3" d="M251.84,386.13c-10.14,0-20.26-.46-30.26-.92-40.99-1.94-80.87-4.8-118.32-18.36-31.54-11.4-56.67-29.38-72.68-52.01C-.66,270.2-4.63,201.45,5.29,153.11c12.59-61.13,52.25-90.81,95.27-118.23,2.59-1.7,5.26-3.5,7.85-5.24,12.72-8.58,25.87-17.45,41.17-21.5,22.52-5.97,46.96-4.5,70.59-3.08,3.52.21,7,.42,10.43.6,25.36,1.73,55.08,4.54,83.58,12.22,64.73,16.7,113.98,57.39,131.71,108.84,12.77,35.37,16.32,74.46,9.74,107.2-3.78,19.45-12.48,34.96-19.63,46.3l-.23.31c-1.61,1.95-3.43,3.84-5.19,5.66-4.71,4.88-9.16,9.49-10.25,15.39l-.03.17c-1.05,5.78,1.67,12.32,3.86,17.58,3.39,7.93,7.55,18.48,9.66,29.44,1.96,9.36.62,17.47-3.79,22.8-2.65,3.2-7.79,6.95-17.18,6.82-9.23-.29-18.23-2.75-26.93-5.12-6.55-1.79-13.32-3.64-19.93-4.46l-.15-.02c-19.02-3.32-36.14,2.33-54.27,8.32-1.61.53-3.22,1.06-4.84,1.59-17.96,5.88-36.47,7.41-54.9,7.41ZM188.63,9.78c-12.87,0-25.55.97-37.51,4.14-14.32,3.8-27.05,12.38-39.36,20.68-2.6,1.75-5.29,3.56-7.95,5.3C52.23,72.79,22.19,100.76,11.16,154.32c-9.66,47.08-5.88,113.91,24.32,157.08,15.29,21.61,39.43,38.84,69.82,49.82,36.66,13.27,76.06,16.09,116.56,18.01,27.63,1.27,56.22,2.57,83.02-6.2,1.61-.53,3.22-1.06,4.82-1.59,18.85-6.23,36.65-12.11,57.12-8.55,7.01.88,13.97,2.78,20.7,4.62,8.36,2.28,17.01,4.65,25.49,4.91,5.59.05,9.78-1.47,12.41-4.65,3.22-3.89,4.12-10.22,2.53-17.8-2.01-10.46-6.03-20.61-9.31-28.3-2.37-5.69-5.6-13.46-4.24-20.97l.03-.19c1.42-7.67,6.71-13.15,11.83-18.46,1.71-1.77,3.33-3.45,4.77-5.17,10.15-16.11,15.93-29.72,18.72-44.1,6.38-31.72,2.91-69.64-9.51-104.05-17.09-49.58-64.78-88.84-127.59-105.04-28.03-7.56-57.38-10.33-82.41-12.04-3.4-.18-6.9-.39-10.43-.6-10.33-.62-20.82-1.25-31.18-1.25Z"/>
  <path class="cls-2" d="M71.94,286.12c-1.16,0-2.26-.67-2.75-1.8-.66-1.52.04-3.28,1.56-3.94,59.97-26,123.1-44.45,187.63-54.84,18.96-3.05,38.33-5.45,57.06-7.76,32.61-4.03,66.33-8.2,98.73-15.96,1.61-.39,3.23.6,3.61,2.21.39,1.61-.61,3.22-2.21,3.61-32.72,7.84-66.61,12.03-99.39,16.08-18.68,2.31-37.99,4.7-56.84,7.73-64.04,10.31-126.69,28.62-186.2,54.42-.39.17-.79.25-1.19.25Z"/>
  <path class="cls-2" d="M104.59,292.19c-1.2,0-2.32-.72-2.79-1.9-.61-1.54.15-3.28,1.69-3.88,53.8-21.19,110.21-35.32,167.66-41.99,9.46-1.1,19.1-2.01,28.41-2.89,21.34-2.02,43.4-4.1,64.62-8.58,1.62-.34,3.21.69,3.55,2.31.34,1.62-.69,3.21-2.31,3.55-21.56,4.55-43.79,6.65-65.3,8.68-9.29.88-18.89,1.79-28.29,2.88-56.93,6.61-112.83,20.62-166.15,41.62-.36.14-.73.21-1.1.21Z"/>
  <g>
    <g>
      <g>
        <path class="cls-1" d="M103.57,206.61c-.6-5.15-1.37-10.45-2.71-15.51-1.09-6.54,1.47-15.65-5.15-19.84-3.22-2-7.46-1.29-11.04-1.15-3.6.19-7.14.05-10.73.38-7.29.88-15.31,2.85-22.29,4.99-3.13,1-7.04,1.96-8.92,4.75-1.81,2.96.08,8.4,2.61,11.17,2.96,2.83,7.06,2.26,11.31,1.34,4.94-1.01,9.75-2.64,14.7-3.45,4.55-.91,7.97,1.92,7.39,6.16-.59,5.21-6.7,5.58-11.01,6.28-2.19.31-4.27.88-6.32,1.57-3.9,1.54-7.77.93-11.49,2.66-5.72,3.08-3.65,14.07,2.34,15.67,3.12.88,7.33-.65,11.22-1.35,4.62-.73,10.26-2.64,14.68-1.8,5.89,1.26,4.12,9.75,9.08,12.19,3.76,2.15,14.82-.74,17.72-3.84,4.91-5.35-1.01-13.9-1.39-20.06l-.02-.15Z"/>
        <path class="cls-3" d="M91.08,234.38c-2.03,0-3.86-.32-5.22-1.07-3.34-1.69-4.5-4.99-5.42-7.65-.98-2.8-1.51-3.97-2.88-4.26-2.52-.48-6,.27-9.37,1-1.4.3-2.85.61-4.22.83-.87.16-1.84.38-2.86.62-3.24.75-6.6,1.52-9.65.66-4.05-1.08-7.2-5.25-7.8-10.35-.56-4.77,1.3-8.92,4.86-10.83l.16-.08c2.36-1.1,4.72-1.41,6.81-1.69,1.71-.23,3.32-.44,4.84-1.04l.15-.05c2.52-.85,4.7-1.39,6.86-1.69.36-.06.8-.12,1.25-.19,4.79-.71,6.97-1.38,7.21-3.46.1-.73.06-1.65-.62-2.29-.69-.65-1.86-.87-3.21-.6l-.1.02c-2.68.44-5.31,1.13-8.1,1.86-2.11.55-4.28,1.12-6.49,1.57-3.59.77-9.63,2.06-13.99-2.12l-.14-.14c-3.01-3.29-5.71-10.24-2.96-14.75l.08-.12c2.29-3.38,6.32-4.63,9.56-5.63l.94-.29c5.83-1.78,14.49-4.11,22.84-5.11,2.3-.21,4.47-.24,6.58-.27,1.43-.02,2.92-.04,4.35-.12.62-.02,1.21-.06,1.81-.1,3.33-.21,7.47-.48,10.97,1.69,6.14,3.89,6.18,10.78,6.22,16.32.01,1.97.03,3.84.28,5.44,1.43,5.44,2.19,11.01,2.75,15.75l.04.34c.1,1.65.75,3.72,1.45,5.92,1.62,5.11,3.63,11.48-.84,16.35-2.63,2.8-10.2,5.54-16.11,5.54ZM75.78,215.27c1.01,0,2,.08,2.96.26,4.87,1.04,6.3,5.16,7.35,8.16.8,2.3,1.37,3.73,2.49,4.29l.16.09c2.27,1.3,11.85-.95,14.04-3.29,1.96-2.14,1.09-5.54-.47-10.48-.76-2.4-1.54-4.89-1.71-7.24v-.1c-.55-4.58-1.28-9.96-2.64-15.09l-.06-.27c-.35-2.1-.37-4.34-.38-6.52-.04-5.7-.29-9.31-3.42-11.29-1.84-1.15-4.67-.97-7.4-.79-.65.04-1.29.08-1.91.11-1.51.08-3.05.1-4.54.13-2.08.03-4.05.06-6.04.24-7.83.94-16.12,3.17-21.69,4.87l-.96.3c-2.43.75-5.18,1.6-6.32,3.19-.74,1.35.21,5.19,2.23,7.46,1.74,1.6,4.35,1.41,8.54.51,2.07-.43,4.17-.97,6.2-1.5,2.78-.73,5.66-1.48,8.6-1.96,3.25-.64,6.33.14,8.44,2.12,1.95,1.83,2.85,4.53,2.46,7.39-.79,6.93-7.98,8-12.27,8.64-.42.06-.83.12-1.23.19-1.83.26-3.64.71-5.77,1.43-2.18.85-4.3,1.13-6.18,1.38-1.86.25-3.48.46-4.98,1.14-1.55.89-1.88,3.07-1.68,4.82.31,2.61,1.75,4.83,3.44,5.28,1.62.46,4.21-.14,6.71-.72,1.04-.24,2.13-.49,3.2-.69,1.27-.2,2.58-.48,3.96-.78,2.81-.61,5.9-1.27,8.86-1.27Z"/>
      </g>
      <g>
        <path class="cls-1" d="M178.76,158.87c-1.63-7.98-.01-21.42-11.19-22.58-7.34-1.15-16.34,1.68-16.71,10.31-.27,3.38.41,6.74,1.4,10.03.62,2.05,1.2,4.01,1.1,5.69-.06,3.77-4.12,6.63-7.75,6.65-4.47.01-3.51-6.08-3.83-9.4-.45-6.71-1.71-15.78-9.41-17.64-4.55-1.05-10.25.49-13.71,3.2-3.27,2.58-3.96,6.86-3.37,11.04.81,4.3,2.6,7.81,2.86,11.97.32,2.54,0,6.4.36,9.33.88,7.29,1.12,14.96,2.56,21.94,1.43,6.16.41,13.68,4.86,18.85,3.88,3.92,11.18,3.67,16.11,1.95,3.1-1.1,5.41-3.27,6.44-6.63.85-2.67.69-5.51.23-8.29-.36-4.83-4.74-10.16-.71-14.28,3.34-2.89,10.7-4.49,10.21,2.44-.03,7.45-.2,17.27,5.02,22.89,4.58,4.6,12.36,3.21,17.39.11,5.5-3.4,5.19-10.61,3.23-15.98-2.05-5.86-1.82-9.82-1.92-15.57-1.14-8.56-1.36-17.66-3.12-25.93l-.02-.12Z"/>
        <path class="cls-3" d="M134.95,224.43c-4.18,0-8.31-1.15-11.17-4.04l-.14-.15c-3.67-4.27-4.22-9.67-4.7-14.44-.2-2.03-.4-3.94-.8-5.68-.98-4.78-1.43-9.78-1.86-14.61-.22-2.53-.46-5.15-.76-7.65-.21-1.69-.21-3.54-.22-5.33,0-1.51,0-2.94-.14-3.99l-.02-.19c-.13-2.08-.75-4.09-1.4-6.22-.52-1.68-1.05-3.43-1.42-5.38l-.02-.14c-.83-5.96.76-10.86,4.48-13.8,4.37-3.42,11.05-4.98,16.25-3.77,10.52,2.54,11.37,15.02,11.73,20.35.07.67.08,1.47.1,2.32.02,1.2.07,3.68.54,4.28.02,0,.09,0,.19,0h0c2.11,0,4.73-1.72,4.76-3.7v-.13c.07-1.19-.48-3.03-.97-4.66-1.31-4.38-1.78-7.8-1.52-11.09.18-3.89,1.82-7.21,4.72-9.58,3.79-3.1,9.52-4.41,15.37-3.51,11.15,1.2,12.24,11.81,13.03,19.57.2,1.97.39,3.83.71,5.38l.03.14c1.13,5.29,1.64,10.95,2.14,16.43.29,3.21.59,6.52,1.01,9.68l.03.34c.01.7.02,1.37.03,2.03.05,4.59.08,7.91,1.73,12.61,2.41,6.59,2.5,15.2-4.48,19.52-6.14,3.78-15.35,5.22-21.09-.55l-.07-.08c-5.9-6.35-5.85-16.78-5.82-24.39v-.74c.07-.93-.08-1.5-.26-1.59-.77-.38-3.23.16-4.89,1.54-1.21,1.33-.86,2.9.3,6.36.57,1.72,1.17,3.5,1.33,5.38.4,2.44.77,6.03-.36,9.56-1.26,4.11-4.13,7.07-8.3,8.55-2.46.86-5.28,1.38-8.07,1.38ZM128.11,216.25c2.78,2.71,8.71,2.63,12.92,1.16,2.36-.83,3.85-2.37,4.56-4.68.59-1.85.63-3.98.14-6.93l-.03-.26c-.09-1.2-.56-2.6-1.05-4.08-1.19-3.56-2.81-8.43,1.18-12.52l.18-.17c2.92-2.54,7.98-4.26,11.6-2.46,1.46.73,3.86,2.64,3.58,7.26v.45c-.03,6.96-.07,15.63,4.18,20.25,3.26,3.22,9.46,2.22,13.66-.36,5.06-3.13,2.54-10.88,1.99-12.41-1.98-5.66-2.02-9.78-2.08-14.56,0-.59-.01-1.19-.02-1.81-.43-3.22-.73-6.54-1.02-9.75-.48-5.3-.98-10.79-2.04-15.77l-.03-.16c-.38-1.84-.58-3.84-.8-5.96-.87-8.44-1.82-13.62-7.76-14.23l-.16-.02c-4.09-.64-8.29.23-10.72,2.22-1.61,1.32-2.44,3.04-2.53,5.27v.11c-.21,2.53.18,5.29,1.27,8.94.63,2.07,1.34,4.43,1.22,6.66-.13,5.59-5.74,9.51-10.73,9.53h-.02c-6.53,0-6.66-6.86-6.72-10.16-.01-.73-.03-1.42-.08-1.94-.46-6.73-1.65-13.69-7.13-15.01-3.41-.78-8.23.35-11.16,2.65-2.52,1.99-2.63,5.54-2.26,8.2.3,1.6.76,3.09,1.24,4.66.72,2.34,1.46,4.76,1.64,7.51.17,1.39.17,2.96.17,4.63,0,1.61,0,3.28.17,4.61.32,2.61.55,5.27.78,7.85.41,4.67.84,9.49,1.74,13.86.47,2.04.7,4.24.91,6.36.43,4.23.83,8.22,3.21,11.06Z"/>
      </g>
      <g>
        <path class="cls-1" d="M171.34,269.79c-1.61-6.45-5.03-12.03-6.54-18.68-1.12-5.53-.33-12.06-4.18-16.64-3.55-4.36-11.1-3.01-15.21-.33-5.23,4.54,3.04,11.72-7.25,15.57-11.34,4.48-7.67-7.62-15.68-8.71-2.58-.35-5.41.67-7.91,1.53-2.43.84-5.14,1.9-6.64,4.03-1.63,2-1.01,4.64.04,6.81,1.3,3.04,2.58,6.19,3.53,9.52,1.6,6.02,3.11,12.06,5,17.93,1.39,4.46,2.09,10.13,4.4,14.24,3.91,6.65,12.39,3.46,18.22,1.78,2.81-.8,5.77-1.27,8.63-1.95,3.45-.98,6.98-2.48,9.76-3.52,5.32-2.58,15.96-3.85,17.01-10.74.16-3.72-2.04-7.23-3.11-10.69l-.05-.14ZM134.09,270.15c.57-3.58,6.2-4.25,9.26-5.39,5.42-1.62,7.15-.7,8.35,4.68,1.14,2.65,1.19,5.03-1.65,6.32-2.58,1.34-5.88,1.92-8.85,2.48-1.67.27-3.43.28-4.98-.43-3.1-1.44-2.26-4.83-2.15-7.53l.02-.13Z"/>
        <path class="cls-3" d="M128.44,302.04c-3.88,0-7.66-1.26-10.14-5.48-1.78-3.17-2.65-6.82-3.5-10.34-.39-1.62-.75-3.14-1.18-4.52-1.56-4.84-2.88-9.87-4.16-14.74l-.87-3.31c-.9-3.16-2.15-6.22-3.36-9.05-2.32-4.86-1.14-8.02.3-9.84,2.01-2.8,5.22-4.08,8.06-5.06l.32-.11c2.71-.93,5.79-1.98,8.97-1.55,4.92.67,6.87,4.35,8.17,6.79,1.59,2.99,1.97,3.71,6,2.11,3.89-1.46,3.79-2.75,3.54-5.87-.21-2.65-.5-6.28,2.84-9.18l.33-.25c4.85-3.16,14.3-5.04,19.17.95,3.29,3.91,3.76,8.83,4.18,13.18.16,1.69.32,3.28.61,4.75.71,3.14,1.93,6.09,3.22,9.22,1.2,2.93,2.45,5.95,3.27,9.22v.04c.32,1.01.73,2.01,1.17,3.07,1.05,2.57,2.24,5.48,2.1,8.69l-.03.31c-1.04,6.91-8.26,9.33-14.06,11.27-1.75.58-3.39,1.14-4.6,1.72l-.26.11c-.71.26-1.47.56-2.26.87-2.36.92-5.03,1.96-7.72,2.72l-.12.03c-1.16.28-2.33.52-3.5.76-1.75.36-3.41.7-5,1.16-.43.12-.89.26-1.36.4-2.79.83-6.5,1.94-10.12,1.94ZM121.39,243.93c-1.67,0-3.71.7-5.54,1.33l-.32.11c-1.98.68-4.18,1.53-5.16,2.92l-.13.17c-.69.85-.16,2.44.41,3.62l.05.12c1.3,3.03,2.64,6.32,3.66,9.87l.89,3.38c1.26,4.79,2.56,9.74,4.08,14.45.5,1.6.9,3.29,1.3,4.93.75,3.13,1.52,6.37,2.86,8.75,2.22,3.76,6.93,2.7,13.35.79.49-.15.96-.29,1.42-.42,1.82-.52,3.66-.9,5.44-1.26,1.09-.23,2.18-.45,3.26-.7,2.4-.69,4.91-1.66,7.12-2.53.78-.3,1.52-.59,2.21-.85,1.53-.73,3.31-1.32,5.19-1.95,4.4-1.47,9.39-3.14,10.01-6.34.03-1.85-.79-3.87-1.66-5.99-.46-1.13-.94-2.31-1.32-3.52l-.09-.3c-.72-2.89-1.84-5.61-3.03-8.5-1.32-3.22-2.69-6.54-3.53-10.24-.38-1.85-.55-3.67-.72-5.44-.37-3.81-.71-7.42-2.83-9.94-2.3-2.83-7.91-1.83-11.09.13-.83.81-.84,1.76-.66,4.06.26,3.33.71,8.9-7.36,11.93-8.97,3.55-11.78-1.73-13.46-4.89-1.31-2.47-1.97-3.42-3.68-3.66-.22-.03-.44-.04-.67-.04ZM139.22,281.4c-1.59,0-2.98-.29-4.26-.88-4.53-2.1-4.17-6.74-3.97-9.23.03-.39.06-.78.08-1.15l.06-.5c.76-4.67,5.79-6.11,9.12-7.06.77-.22,1.49-.43,2.05-.63l.19-.06c2.8-.83,5.72-1.41,8.19.03,2.36,1.38,3.3,4.08,3.89,6.6,2.6,6.36-1.29,9.04-3.19,9.93-2.82,1.45-6.18,2.08-9.15,2.64l-.47.09c-.9.15-1.74.22-2.54.22ZM137.05,270.61c-.02.38-.05.77-.08,1.17-.21,2.72-.03,3.07.51,3.32.78.36,1.84.42,3.23.2l.4-.08c2.71-.51,5.5-1.04,7.56-2.1l.14-.07c.61-.28.98-.45.14-2.41l-.11-.26-.06-.27c-.6-2.66-1.11-2.99-1.13-3-.02-.01-.58-.31-3.35.51-.74.27-1.54.5-2.39.74-1.52.44-4.67,1.34-4.85,2.26Z"/>
      </g>
    </g>
    <g>
      <g>
        <path class="cls-1" d="M203.78,162.62c4.86,2.5,10.74.64,15.93.34,5.11-.36,10.17-.39,15.39-.4,4.9-.1,10.13.06,13.59-3.13,3.28-3.11,3.49-8.87,1.08-12.68-1.77-2.82-5.04-4-8.4-3.86-7.43.75-13.75.75-21.36.81-5.76.57-14.1-.74-17.91,3.99-3.06,4.22-2.82,11.76,1.57,14.85l.11.07Z"/>
        <path class="cls-3" d="M209.82,166.9c-2.49,0-5.01-.38-7.42-1.62l-.46-.28c-2.46-1.73-4.12-4.54-4.69-7.93-.66-3.97.24-8.13,2.41-11.13l.09-.12c3.77-4.69,10.39-4.81,15.71-4.91,1.53-.03,2.98-.06,4.24-.18h.27s1.25-.02,1.25-.02c6.95-.05,12.95-.1,19.83-.79h.17c4.74-.22,8.87,1.75,11.07,5.24,3.32,5.25,2.64,12.48-1.56,16.45-4.06,3.75-9.6,3.85-14.49,3.93l-1.1.02c-5.69.01-10.38.05-15.24.39-1.28.07-2.58.24-3.97.42-1.96.26-4.03.53-6.13.53ZM205.3,160.03c2.75,1.34,6.21.88,9.88.4,1.43-.19,2.91-.38,4.37-.46,5-.35,10.01-.39,15.56-.4l1.06-.02c4.19-.07,8.14-.14,10.5-2.31,2.05-1.94,2.34-6.11.58-8.89-1.47-2.33-4.39-2.5-5.66-2.47-7.12.71-13.23.76-20.29.81h-1.12c-1.45.15-2.97.17-4.58.2-4.46.08-9.06.17-11.11,2.62-1.18,1.68-1.7,4.24-1.31,6.57.29,1.74,1.05,3.14,2.13,3.95Z"/>
      </g>
      <g>
        <path class="cls-1" d="M260.56,213.47c-3.15-1.85-6.39-3.15-9.66-4.93-4.31-1.93-8.25-3.82-9.37-8.51-.08-.28-.16-.57-.23-.86-1.54-5.25.47-6.7,5.17-7.15,4.31-.54,9.7-.84,13.06-3.65,3.95-3.3,2.12-11.79-1.39-14.65-3.09-2.25-7.01-.87-11.05-.43-1.14.16-2.26.41-3.34.71-3.79,1.05-5.4,1.32-9.53,1.24-2.32-.03-4.81.52-7.15.79-6.21.53-12.36,1.2-18.39,2.26-6.15.68-15.48.79-14.92,9.28,0,4.19.88,9.13,5.67,10.13,3.47.87,7.11-.11,10.56-1.01,2.71-.93,6.47-.8,7.27,2.4,1.5,5.67-3.9,9.79-6.1,14.53-.62,1.17-1.3,2.32-2.13,3.38-2.67,3.84-7.21,7.31-7.52,12.31-.05,4.96,4.47,9.4,8.93,11.02,4.99,1.4,9.3-5.16,12.56-8.94,2.25-3.14,3.96-7.59,7.63-8.94,4.5-1.56,8.64,1.73,12.81,3.68,4.61,2.06,9.62,5.8,14.64,5.33,4.04-.45,7.32-4.01,8.31-7.8,1.1-4.29-2.13-8.08-5.68-10.12l-.13-.08Z"/>
        <path class="cls-3" d="M211.87,243.55c-.73,0-1.48-.1-2.25-.32l-.21-.07c-5.46-1.98-10.96-7.38-10.9-13.86v-.16c.3-4.58,3.15-7.92,5.67-10.86.89-1.03,1.72-2.01,2.39-2.97l.09-.13c.6-.77,1.17-1.68,1.81-2.88.8-1.7,1.88-3.24,2.93-4.73,2.25-3.2,3.59-5.28,2.95-7.7-.08-.32-.17-.39-.29-.46-.53-.29-1.77-.34-3.1.12l-.33.09c-3.62.95-7.73,2.02-11.88,1-3.64-.79-7.96-3.68-7.99-12.95-.62-10.55,10.16-11.61,15.96-12.19.53-.05,1.04-.1,1.54-.16,5.3-.93,11.03-1.63,18.56-2.27.61-.07,1.32-.18,2.04-.29,1.75-.26,3.56-.54,5.41-.51,3.89.08,5.2-.16,8.69-1.13,1.27-.36,2.53-.63,3.73-.8.91-.1,1.73-.23,2.54-.36,3.41-.54,7.27-1.15,10.69,1.34l.13.1c2.79,2.28,4.69,6.77,4.71,11.17.02,3.43-1.15,6.31-3.3,8.1-3.65,3.06-8.88,3.66-13.09,4.14-.52.06-1.03.12-1.53.18-2.57.24-2.97.7-2.99.72,0,0-.27.57.33,2.62l.03.12c.06.25.13.5.2.74l.04.15c.76,3.18,3.41,4.57,7.68,6.48l.22.11c1.38.76,2.82,1.45,4.2,2.11,1.81.87,3.68,1.77,5.53,2.86l.16.1c5.54,3.21,8.3,8.47,7.04,13.42-1.39,5.36-5.87,9.49-10.88,10.04-4.67.44-8.95-1.83-12.73-3.83-1.22-.64-2.36-1.25-3.46-1.74-1-.47-1.94-.97-2.84-1.45-3.39-1.82-5.61-2.87-7.76-2.13-1.69.62-3,2.77-4.38,5.05-.57.93-1.15,1.9-1.8,2.8l-.17.21c-.46.53-.93,1.11-1.43,1.72-2.97,3.64-6.9,8.46-11.96,8.46ZM211.33,237.49c2.37.55,5.53-3.34,7.85-6.18.5-.61.98-1.2,1.44-1.74.49-.69.97-1.48,1.47-2.32,1.77-2.92,3.78-6.22,7.49-7.58,4.84-1.68,9.15.63,12.61,2.49.87.47,1.69.91,2.5,1.29,1.23.55,2.53,1.23,3.77,1.9,3.19,1.69,6.48,3.44,9.31,3.16,2.82-.31,5.04-3.11,5.69-5.58.71-2.77-1.86-5.38-4.27-6.77l-.19-.12c-1.63-.96-3.3-1.76-5.07-2.61-1.42-.68-2.89-1.39-4.37-2.2-4.23-1.89-9.43-4.26-10.94-10.43-.08-.28-.16-.56-.23-.84-.61-2.09-1.2-5.13.48-7.6,1.68-2.48,4.78-3.07,7.29-3.3.42-.05.95-.12,1.49-.18,3.59-.41,7.65-.88,9.93-2.79.74-.62,1.16-1.89,1.16-3.48-.02-2.75-1.27-5.49-2.45-6.51-1.34-.92-3.22-.68-6.15-.22-.88.14-1.8.29-2.75.39-.84.12-1.83.33-2.85.62-4.06,1.12-5.92,1.44-10.4,1.35-1.33,0-2.83.21-4.42.45-.78.12-1.56.23-2.32.32-7.48.64-13.07,1.33-18.22,2.23l-.19.03c-.55.06-1.12.12-1.7.18-7.67.76-10.83,1.75-10.56,5.93v.19c0,6.51,2.39,7.02,3.29,7.2l.11.03c2.69.67,5.88-.16,8.97-.97h.01c2.81-.93,5.71-.82,7.8.32,1.65.9,2.77,2.36,3.24,4.23,1.37,5.2-1.53,9.32-3.86,12.63-.95,1.36-1.86,2.64-2.43,3.88l-.07.15c-.8,1.51-1.55,2.71-2.36,3.76-.83,1.18-1.79,2.3-2.71,3.38-2.07,2.42-4.03,4.71-4.23,7.26.02,3.41,3.52,6.8,6.83,8.05Z"/>
      </g>
      <g>
        <path class="cls-1" d="M323.89,215.17c-.48-3.82-2.05-7.47-2.78-11.24-.97-4.81-1.35-9.36-2.17-14.17-1.45-6.25-3.06-12.51-2.78-18.89,0-7.8.24-16.48-3.18-23.63-3.63-7.31-13.38-6.82-19.36-2.85-3.45,2.21-4.74,6.14-4.49,10.23-.1,3.63,3.61,9.47,1.42,12.16-1.51,1.8-5.2,2.46-7.75,3.33-4.43,1.15-9.6,3.69-9.45,8.9,0,3.24,2.39,6.57,5.71,7.82,3.29,1.35,7.5.42,10.77,1.26,4.37,1.16,3.77,5.65.37,8.09-4.94,3.59-14.16,3.33-14.9,11.07-.56,4.35,2.54,9.21,6.96,10.3,3.07.97,6.41-.29,9.33-.86,3.2-.63,4.36.64,5.6,3.54,1.92,4.57,3.31,9.73,9.11,10.71,11.37,2.22,20.01-3.39,17.61-15.6l-.02-.16Z"/>
        <path class="cls-3" d="M310.96,234.39c-1.68,0-3.43-.17-5.24-.53-6.73-1.13-8.93-6.59-10.69-10.98-.2-.51-.41-1.01-.61-1.51-.87-2.03-.9-2.03-2.26-1.76-.57.11-1.17.26-1.78.4-2.57.62-5.76,1.38-8.95.41-5.7-1.47-9.87-7.66-9.11-13.56.67-6.98,6.67-9.18,11.05-10.79,1.94-.71,3.78-1.39,5.06-2.32,1.15-.83,1.56-1.84,1.49-2.28-.04-.21-.49-.4-.87-.5-1.07-.28-2.48-.3-3.97-.33-2.25-.04-4.8-.09-7.16-1.06-4.36-1.64-7.58-6.1-7.57-10.59-.16-5.56,3.96-9.77,11.59-11.77.6-.2,1.26-.39,1.93-.59,1.51-.44,3.8-1.11,4.38-1.8.23-.59-.54-3.1-.95-4.44-.58-1.91-1.19-3.87-1.17-5.73-.3-5.56,1.83-10.22,5.87-12.81,4.53-3.01,10.39-4.08,15.24-2.78,3.79,1.02,6.7,3.38,8.42,6.83,3.51,7.35,3.5,15.91,3.49,23.46v1.64c-.24,5.47,1.02,10.89,2.36,16.62l.38,1.64c.35,2.08.63,4.11.89,6.08.37,2.73.72,5.31,1.26,8,.29,1.52.74,3.03,1.21,4.62.64,2.17,1.3,4.41,1.6,6.78v.06c1.55,7.93-1.12,12.59-3.63,15.11-2.94,2.94-7.25,4.48-12.26,4.48ZM293.03,213.54c3.96,0,5.72,2.73,6.91,5.5.23.55.44,1.08.66,1.62,1.72,4.3,2.86,6.75,6.2,7.32,5.28,1.03,9.69.19,12.18-2.3,2.7-2.7,2.58-6.81,1.99-9.77l-.06-.36c-.24-1.92-.81-3.85-1.41-5.9-.49-1.66-.99-3.37-1.34-5.15-.58-2.86-.95-5.66-1.32-8.36-.26-1.89-.52-3.84-.85-5.79l-.32-1.37c-1.37-5.85-2.78-11.91-2.51-18.17v-1.45c.01-7.25.02-14.74-2.88-20.83-.92-1.85-2.47-3.1-4.58-3.66-3.14-.84-7.33-.03-10.41,2.02-3.04,1.94-3.28,5.56-3.16,7.55v.13s0,.13,0,.13c-.03.92.47,2.53.91,3.96,1.03,3.34,2.19,7.13-.16,10.01-1.78,2.11-4.72,2.97-7.32,3.73-.63.18-1.24.36-1.79.55l-.22.06c-3.34.86-7.3,2.59-7.21,5.92,0,2.1,1.66,4.3,3.77,5.1,1.41.57,3.19.61,5.08.64,1.77.03,3.61.07,5.38.52,2.87.76,4.77,2.66,5.24,5.22.53,2.91-.98,6.14-3.87,8.21-1.94,1.41-4.26,2.26-6.5,3.08-4.76,1.75-6.87,2.83-7.16,5.84-.39,3.06,1.85,6.41,4.7,7.11l.18.05c1.63.52,3.67.03,5.82-.49.69-.17,1.36-.33,2.02-.46.73-.14,1.41-.21,2.03-.21Z"/>
      </g>
    </g>
    <g>
      <path class="cls-1" d="M417.35,165.56c-17.47-8.12-15.44,17.16-32.62,6.49-6.54-4.21-13.4-8.31-21.02-10.19-7.97-2.18-16.12,1.5-20.16,8.59-3.33,5.8-8.1,13.05-3.26,18.92,2.21,2.72,6.26,4.64,9.49,4.1,3.22-.49,5.6-3.2,7.67-5.66,6.45-8.82,14.26-3.2,21.42,1.12,5.63,3.38,12.24,6.94,18.8,6.48,7.86-.72,16.4-2.81,20.05-10.66,2.93-5.78,6.64-15.03-.22-19.12l-.13-.08Z"/>
      <path class="cls-3" d="M396.55,198.45c-6.69,0-13.18-3.32-19.23-6.94l-1.37-.83c-8.12-4.96-12.09-6.56-16.09-1.09l-.12.16c-2.01,2.39-5.05,6.01-9.51,6.69-4.09.69-9.26-1.48-12.26-5.17-5.84-7.09-1.11-15.23,2.34-21.18l.65-1.12c4.77-8.37,14.46-12.48,23.55-9.99,8.14,2,15.55,6.5,21.85,10.56,6.66,4.14,8.79,1.93,12.65-2.09,3.84-4,9.11-9.47,19.61-4.6l.37.2c6.67,3.97,7.14,11.71,1.42,23.02-4.5,9.62-14.97,11.65-22.47,12.33-.46.03-.92.05-1.38.05ZM365.29,180.2c5,0,9.97,3.03,13.8,5.37l1.33.81c5.23,3.14,11.3,6.46,17.04,6.06,9.65-.88,15.08-3.64,17.54-8.93l.04-.09c6.1-12.04,2.24-14.41.94-15.18-6.52-2.99-8.96-.45-12.64,3.37-3.95,4.1-9.35,9.72-20.18,3-6.2-4-12.83-8.02-20.15-9.82-6.53-1.78-13.42,1.17-16.84,7.17l-.67,1.15c-3.57,6.15-5.86,10.78-2.89,14.39,1.63,2,4.68,3.38,6.67,3.05,2.08-.32,3.86-2.25,5.81-4.55,3.16-4.28,6.69-5.77,10.2-5.77Z"/>
    </g>
  </g>
</svg>