<?xml version="1.0" encoding="UTF-8"?>
<svg id="Layer_1" xmlns="http://www.w3.org/2000/svg" viewBox="0 0 482 410">
  <defs>
    <style>
      .cls-1 {
        fill: #fff;
      }

      .cls-2 {
        fill: #e2ded9;
      }

      .cls-3 {
        fill: #50473b;
      }
    </style>
  </defs>
  <path class="cls-1" d="M101.92,364.55c53.44,44.79,128.72,45.26,195.01,40.45,10.43-1.01,20.77-2.92,30.76-6.13,14.12-4.5,27.43-11.22,40.51-18.14,20.01-10.8,40.63-21.95,56.11-38.46,11.65-12.37,20.05-27.36,27.78-42.53,15.77-31.45,27.43-66.55,21.69-101.36-3.5-21.88-14.04-41.86-24.4-61.39-9.47-17.62-19.3-35.23-32.09-50.67-23.86-28.61-57.74-47.2-90.67-64-8.68-4.02-17.77-6.96-27.16-8.84-48.32-7.79-101.87-14.78-147.07,2.75-33.96,13.06-58,41.76-80.59,69.42-23.22,26.44-45.75,54.89-49.7,91.08-4.35,33.5,3.2,67.47-6.8,100.03-1.97,6.68-4.64,13.19-7.41,19.59-2.46,6.19-7.3,16.09-3.49,20.93,5.57,5.49,22.03-2.22,31.03-2.38,10.4-1.17,20.2,2.99,29.1,8,11.96,14.28,23.11,29.6,37.39,41.66Z"/>
  <path class="cls-2" d="M278.06,264.91c-3.52,0-7.04-.03-10.55-.1-27.32-.56-54.99-3.57-81.76-6.48-42.59-4.63-86.63-9.43-129.6-4.27-1.65.19-3.13-.98-3.33-2.62-.2-1.64.97-3.14,2.62-3.33,43.65-5.23,88.03-.4,130.96,4.27,26.63,2.9,54.18,5.9,81.23,6.45,16.92.34,34.15-.25,50.82-.83l101.23-3.52c1.69-.03,3.04,1.24,3.1,2.89.06,1.66-1.24,3.04-2.89,3.1l-101.23,3.52c-13.31.46-26.97.94-40.6.94Z"/>
  <path class="cls-2" d="M374.39,288.73c-.23,0-.46-.03-.69-.08-12.04-2.83-24.89-2.37-37.32-1.93l-1.74.06c-20.67.72-41.65.98-62.34.78-9.07-.09-18.73-.26-28.45-1.26-4.51-.46-9.04-1.11-13.42-1.73-5.42-.77-11.02-1.57-16.52-2.01-6.32-.5-12.83-.56-19.12-.62-2.31-.02-4.62-.04-6.93-.08-10.33-.18-20.82-.79-30.97-1.38-21.88-1.26-44.5-2.57-66.4.36-1.63.22-3.15-.93-3.37-2.58-.22-1.64.93-3.15,2.57-3.37,22.47-3.01,45.38-1.68,67.54-.4,10.09.58,20.51,1.19,30.73,1.37,2.29.04,4.58.06,6.87.08,6.4.06,13.01.12,19.54.64,5.68.45,11.38,1.27,16.88,2.05,4.33.62,8.8,1.25,13.19,1.7,9.46.97,18.97,1.14,27.9,1.23,20.6.2,41.48-.06,62.07-.77l1.73-.06c12.83-.45,26.08-.92,38.9,2.09,1.61.38,2.61,1.99,2.23,3.6-.32,1.38-1.55,2.32-2.91,2.32Z"/>
  <path class="cls-2" d="M183.28,403.65c-20.38,0-40.62-3.26-57.99-15.2-14.33-9.48-26.5-23.46-38.28-36.98-5.76-6.61-11.71-13.45-17.78-19.57l-.07-.08c-4.6-4.99-9.74-9.98-14.71-14.8-16.84-16.36-34.25-33.29-39.53-57.03-3.33-15.7-.57-32.63,2.1-49.01.95-5.83,1.93-11.87,2.59-17.63v-.1c.8-5.29,1.41-10.79,2-16.11,2.01-18.19,4.1-37,13.57-53.5,6.69-11.68,16.52-21.79,26.03-31.56,6.15-6.33,12.51-12.87,17.9-19.72,4.87-5.91,9.45-12.24,13.87-18.36,4.77-6.59,9.7-13.41,15.01-19.74l.13-.15c9.2-10.98,18.8-18.82,29.34-23.96,25.36-12.03,60.3-13.36,103.89-3.95,18.32,3.97,35.91,10.78,52.93,17.37,9.89,3.83,20.12,7.79,30.32,11.12,7.19,2.3,14.85,4.37,22.76,6.14,4.44.99,9.02,1.9,13.45,2.78,26.49,5.26,53.88,10.69,68.45,36.49,6.54,11.32,10.14,25.25,13.61,38.73,1.94,7.54,3.95,15.33,6.43,22.39l.04.11c3.46,11.24,8.81,22.51,13.99,33.41,11.17,23.52,22.72,47.84,17.3,74.89-4.41,25.16-21.96,43.1-38.93,60.45-4.45,4.55-9.05,9.25-13.25,13.94-8.53,9.48-15.5,20.49-22.24,31.15-1.51,2.38-3.01,4.76-4.53,7.12-7.1,10.9-16.23,22.9-30.26,29.43-17.18,7.89-35.38,7.29-54.65,6.65-1.45-.05-2.91-.1-4.38-.14-13.27-.53-23.45-.73-33.01-.64-15.45.09-31.79,1.01-51.42,2.9-2.21.21-4.45.44-6.69.66-12.25,1.23-25.14,2.52-37.97,2.52ZM73.52,327.71c6.19,6.25,12.19,13.15,18,19.81,11.51,13.22,23.42,26.88,37.11,35.95,26.55,18.26,59.83,14.92,92.02,11.69,2.25-.23,4.49-.45,6.71-.67,19.81-1.91,36.32-2.84,51.95-2.93,9.66-.08,19.92.12,33.26.65,1.45.04,2.92.09,4.37.14,18.54.62,36.05,1.2,51.94-6.1,12.64-5.88,21.12-17.07,27.75-27.25,1.5-2.33,3-4.69,4.5-7.06,6.88-10.86,13.99-22.1,22.85-31.95,4.29-4.79,8.93-9.54,13.43-14.13,16.33-16.69,33.22-33.96,37.32-57.36,5.04-25.17-5.58-47.53-16.83-71.21-5.26-11.08-10.7-22.53-14.29-34.16-2.56-7.29-4.59-15.19-6.56-22.83-3.38-13.08-6.86-26.61-13.01-37.25-13.23-23.42-38.09-28.36-64.42-33.58-4.46-.89-9.07-1.8-13.59-2.81-8.09-1.81-15.93-3.92-23.3-6.29-10.37-3.39-20.68-7.38-30.64-11.24-16.8-6.51-34.17-13.24-52.03-17.1-42.26-9.12-75.92-7.95-100.03,3.49-9.74,4.75-18.7,12.08-27.36,22.41l-.12.14c-5.17,6.17-10.04,12.9-14.75,19.4-4.48,6.19-9.12,12.59-14.06,18.6-5.54,7.05-12.01,13.71-18.27,20.14-9.67,9.95-18.81,19.34-25.12,30.37-8.85,15.42-10.86,33.6-12.81,51.18-.59,5.36-1.21,10.89-2,16.28-.67,5.89-1.67,11.98-2.63,17.87-2.58,15.83-5.25,32.19-2.15,46.76,4.89,21.97,21.65,38.25,37.85,54,5.01,4.87,10.19,9.9,14.9,15Z"/>
  <path class="cls-3" d="M248.08,410c-17.54,0-35.95-.94-53.92-3.66-38.63-5.85-69.43-18.77-94.16-39.49h0c-11.31-9.56-20.75-21.18-29.87-32.41-2.46-3.03-5-6.16-7.54-9.2-7.32-4.08-16.89-8.49-26.82-7.37l-.28.02c-2.84.05-6.72.99-10.83,1.99-8.63,2.09-17.56,4.26-22.35-.47l-.25-.28c-4.47-5.67-.64-14.93,2.15-21.68.32-.78.63-1.52.9-2.22,2.65-6.1,5.33-12.6,7.32-19.33,5.83-18.98,5.57-38.14,5.29-58.42-.18-13.47-.37-27.39,1.41-41.15,4.05-37.13,27.11-66.12,50.38-92.63,20.59-25.22,46.22-56.6,81.8-70.28,45.15-17.51,98.18-11.04,148.62-2.91l.11.02c9.67,1.94,19.03,4.98,27.83,9.05l.1.05c33.12,16.9,67.47,35.82,91.61,64.75,12.96,15.65,22.74,33.13,32.43,51.17,10.38,19.57,21.11,39.79,24.72,62.34,4.96,30.06-2.23,63.81-21.97,103.18-7.62,14.96-16.3,30.53-28.27,43.25-15.87,16.92-36.71,28.17-56.87,39.04-12.69,6.73-26.3,13.67-41.02,18.36-9.63,3.09-19.89,5.14-31.37,6.26-14.6,1.06-31.43,2.02-49.14,2.02ZM103.85,362.25c52.01,43.59,126.68,44.55,192.87,39.75,10.98-1.07,20.83-3.03,30.06-5.99,14.26-4.54,27.59-11.35,40.02-17.94,19.72-10.64,40.12-21.65,55.33-37.86,11.46-12.17,19.89-27.3,27.29-41.84,19.15-38.18,26.15-70.73,21.41-99.51-3.46-21.58-13.95-41.35-24.09-60.47-9.54-17.74-19.15-34.94-31.75-50.16-23.39-28.04-57.12-46.61-89.67-63.22-8.33-3.85-17.21-6.74-26.38-8.58-49.62-7.99-101.71-14.37-145.46,2.6-34.13,13.12-58.15,42.56-79.35,68.52l-.07.08c-22.66,25.8-45.1,53.95-48.97,89.42-1.74,13.38-1.55,27.09-1.37,40.35.27,19.85.55,40.38-5.55,60.24-2.07,7-4.84,13.71-7.53,19.9-.25.63-.57,1.4-.9,2.2-1.94,4.69-5.16,12.49-3.09,15.52,2.57,2.19,10.34.31,16.61-1.21,4.38-1.06,8.52-2.06,11.98-2.15,11.79-1.28,22.63,3.8,30.76,8.39l.48.27.35.42c2.68,3.2,5.36,6.5,7.95,9.69,8.95,11.02,18.2,22.42,29.08,31.6h0Z"/>
  <g>
    <g>
      <g>
        <path class="cls-1" d="M95.02,210.15c5.76,4.57,10.76-.46,15.26-4.77,2.56-2.36,5-4.89,6.94-7.8,4.72-7.22,9.39-12.55,17.94-7.24,6.06,3.78,12.06,7.65,18.22,11.26,3.91,2.43,9,3.73,13.01,1.23,5.86-3.38,8.65-11.2,3.36-16.41-1.53-1.65-3.32-3.07-5.21-4.27-5.85-3.71-13.06-7.66-19.02-11.83-3.22-2.62-4.09-6.41-4.61-10.48-.97-4.12-1.23-9.3-2.67-13.21-2.42-6.34-10.7-6.1-16.24-5.3-11.43,2.18-8.29,11.65-8.64,20.17-.77,6.59-6.6,10.31-9.56,15.79-7.47,11.47-25.46,18.85-8.92,32.75l.16.12Z"/>
        <path class="cls-3" d="M99.62,214.99c-2.04,0-4.2-.7-6.43-2.46l-.26-.2c-5.07-4.26-7.63-8.41-7.84-12.69-.3-6.32,4.59-11.28,9.32-16.09,2.46-2.5,5-5.09,6.8-7.81,1.22-2.23,2.79-4.12,4.31-5.94,2.37-2.85,4.42-5.32,4.84-8.55.06-1.51,0-3.11-.06-4.67-.25-6.74-.6-15.97,11.13-18.21l.14-.02c13.09-1.87,17.81,2.88,19.46,7.2,1,2.71,1.46,5.75,1.91,8.68.27,1.76.52,3.42.87,4.91l.06.31c.49,3.86,1.25,6.63,3.45,8.47,3.63,2.53,7.77,5.01,11.78,7.4,2.48,1.48,4.82,2.88,7.03,4.29,2.21,1.4,4.14,2.99,5.76,4.71,2.77,2.76,4.04,6.36,3.55,10.16-.56,4.36-3.44,8.54-7.52,10.92-4.43,2.74-10.45,2.28-16.13-1.25-4.48-2.63-9.01-5.48-13.39-8.23-1.61-1.01-3.22-2.02-4.83-3.03-5.42-3.37-8.4-2-13.85,6.34-1.82,2.74-4.1,5.31-7.42,8.36l-.27.26c-3.16,3.03-7.45,7.15-12.41,7.15ZM96.72,207.68l.16.12c3.07,2.43,5.44,1.06,11.02-4.29l.31-.3c2.99-2.76,4.99-4.99,6.52-7.29,3.53-5.4,10.13-15.5,22.01-8.13,1.63,1.01,3.24,2.03,4.86,3.05,4.34,2.73,8.82,5.55,13.29,8.17,1.46.9,6.27,3.55,9.91,1.27l.09-.05c2.52-1.46,4.29-3.95,4.61-6.51.25-1.97-.37-3.71-1.86-5.17l-.09-.09c-1.27-1.37-2.83-2.64-4.62-3.78-2.14-1.36-4.45-2.74-6.89-4.2-4.13-2.47-8.4-5.03-12.23-7.7l-.17-.13c-3.98-3.24-5.09-7.81-5.67-12.28-.38-1.67-.66-3.47-.93-5.22-.41-2.64-.82-5.38-1.6-7.49-1.25-3.27-5.61-4.42-12.93-3.38-6.34,1.23-6.49,4.6-6.2,12.08.06,1.71.13,3.48.06,5.26l-.02.22c-.59,5.05-3.57,8.63-6.2,11.8-1.42,1.71-2.76,3.32-3.71,5.07l-.13.21c-2.12,3.26-4.91,6.09-7.61,8.84-4,4.07-7.78,7.9-7.6,11.6.12,2.46,2.01,5.27,5.64,8.33Z"/>
      </g>
      <g>
        <path class="cls-1" d="M185.74,245.48c-2.51-9.3-13.34-9.98-21.19-8.85-6.75,1.23-11.22.1-17.67-1.11-7.71-.66-15.63-.18-23.3-1.27-7.65-1.14-15.28-.5-22.78-.86-3.64-.22-7.66-.61-11.47-.82-5.97-.25-12.11-1.08-17.28,1.83-6.98,4.8-8.4,19.42.34,23.37,7.4,3.82,16.09,2.29,24.08,1.71,9.36-.69,17.67,1.01,26.98.67,4.85-.38,9.77-.63,14.57-.12,10.83,1.62,22.7,3.81,33.81,3.44,10.77-.14,16.91-6.91,13.97-17.79l-.06-.19Z"/>
        <path class="cls-3" d="M169.23,266.51c-8.92,0-18.09-1.42-26.98-2.8-1.55-.24-3.09-.48-4.61-.71-4.62-.49-9.44-.22-13.96.13h-.13c-4.46.17-8.68-.12-12.76-.39-4.77-.32-9.28-.63-14.11-.27-1.14.08-2.29.18-3.45.29-7.07.63-15.07,1.34-22.16-2.29-4.39-2.02-7.19-6.33-7.68-11.84-.59-6.61,2.27-13.47,6.95-16.7l.23-.14c5.23-2.95,10.96-2.63,16.5-2.33.79.04,1.58.09,2.37.12,2.12.12,4.27.28,6.35.45,1.77.14,3.51.27,5.18.37,2.58.12,5.16.13,7.93.12h.21c4.84,0,9.85.01,14.9.76,4.26.61,8.77.71,13.14.81,3.27.08,6.64.15,9.97.44l.3.04,1.82.35c5.34,1.03,9.2,1.77,14.76.76l.11-.02c13.16-1.88,22.08,2.13,24.5,11l.05.16c2.06,7.63.02,12.49-2.06,15.25-3.05,4.04-8.28,6.32-14.74,6.4-.88.03-1.76.04-2.64.04ZM132.15,256.74c2.05,0,4.12.09,6.18.31l.13.02c1.55.23,3.12.48,4.71.72,9.5,1.47,19.32,2.98,28.56,2.69,4.63-.06,8.19-1.49,10.1-4.02,1.82-2.41,2.19-5.87,1.08-9.99l-.06-.19c-2.16-7.99-13.14-7.34-17.83-6.68-6.62,1.2-11.16.32-16.91-.78l-1.65-.31c-3.1-.26-6.32-.33-9.45-.41-4.54-.1-9.24-.21-13.86-.87-4.7-.7-9.6-.69-14.24-.7-2.73-.01-5.49,0-8.25-.13-1.74-.1-3.52-.24-5.33-.38-2.04-.16-4.15-.32-6.17-.44-.78-.03-1.59-.08-2.41-.12-4.84-.27-9.42-.52-13.12,1.5-2.88,2.06-4.67,6.72-4.27,11.15.18,1.95.96,5.45,4.25,6.94l.14.07c5.56,2.87,12.37,2.27,18.96,1.68,1.19-.11,2.37-.21,3.54-.29,5.25-.39,10.18-.05,14.95.27,3.91.27,7.96.54,12.08.39,2.86-.22,5.85-.41,8.87-.41Z"/>
      </g>
    </g>
    <g>
      <g>
        <path class="cls-1" d="M232.24,131.38c-.87,12.4,7.12,12.91,17.32,13.19,5.41.1,10.86.55,16.21,1.4,2.39.4,5.04.92,6.67,2.78,2.57,3.07,1.26,7.08.67,11.34-.34,2.04-.76,4.06-1.23,6.07-.98,3.98-1.52,8.2-2.29,12.51-.42,2.9-.82,6.2.47,8.87,1.94,4,7.73,4.41,11.9,4.59,3.28.1,6.75.3,9.81-.92,7.66-3.03,4.81-12.94,5.6-19.43,1.18-6.02,1.14-11.77,2.44-17.53,1.68-5.31,4.48-12.79,1.48-18.17-2.17-4.26-7.2-5.39-11.5-6.35-7.74-2.02-15.88-4.7-24.22-4.57-5.68-.22-11.4-.77-17.03-1.28-6.13-.66-16.31-1.16-16.29,7.35v.16Z"/>
        <path class="cls-3" d="M285.24,195.21c-.93,0-1.84-.03-2.73-.06l-.65-.02c-4.12-.18-11.71-.51-14.5-6.28-1.75-3.64-1.14-7.84-.74-10.61.25-1.41.46-2.72.67-4.02.47-2.91.97-5.91,1.67-8.78.52-2.25.9-4.12,1.18-5.84.09-.68.22-1.42.34-2.15.56-3.28.84-5.36-.35-6.78-.89-1.01-2.89-1.42-4.86-1.75-5.08-.81-10.4-1.26-15.78-1.36-6.51-.18-13.22-.36-17.18-4.74-2.42-2.68-3.43-6.48-3.07-11.64v-.06c.02-3.03,1.08-5.58,3.08-7.38,4.08-3.67,10.97-3.46,16.52-2.86l1.19.11c5.11.47,10.39.96,15.56,1.16,7.39-.09,14.39,1.82,21.18,3.66,1.24.34,2.48.67,3.71.99,4.5,1,10.62,2.38,13.44,7.85,3.36,6.09.92,13.68-.87,19.23l-.36,1.14c-.63,2.83-.92,5.68-1.23,8.69-.28,2.75-.58,5.58-1.14,8.51-.16,1.43-.13,3.15-.09,4.96.11,5.82.26,13.78-7.37,16.8-2.5,1-5.12,1.2-7.62,1.2ZM243.29,126.54c-2.63,0-5.48.34-6.95,1.66-.47.43-1.1,1.2-1.1,3l-.02.37c-.24,3.45.26,5.81,1.53,7.21,2.09,2.31,6.66,2.6,12.88,2.78,5.63.1,11.22.58,16.6,1.44,2.27.38,6.02,1,8.45,3.76,3.08,3.67,2.35,7.93,1.71,11.7-.11.67-.23,1.36-.33,2.05-.31,1.92-.72,3.91-1.28,6.33-.66,2.68-1.11,5.43-1.58,8.35-.22,1.32-.43,2.66-.67,4.01-.38,2.62-.66,5.22.22,7.05,1.23,2.54,6.5,2.77,9.33,2.89l.62.02c2.92.09,5.67.18,7.95-.73,3.52-1.39,3.7-5.12,3.59-11.11-.04-1.98-.08-4.03.15-5.9l.03-.21c.53-2.7.81-5.44,1.08-8.09.32-3.1.65-6.3,1.37-9.52l.07-.24.41-1.29c1.53-4.76,3.44-10.69,1.31-14.51l-.05-.1c-1.53-3.01-5.75-3.95-9.48-4.78l-.11-.03c-1.26-.33-2.54-.68-3.82-1.03-6.41-1.75-13.08-3.55-19.6-3.45h-.08s-.08,0-.08,0c-5.35-.21-10.74-.7-15.95-1.18l-1.24-.11c-1.02-.11-2.93-.32-4.97-.32Z"/>
      </g>
      <g>
        <path class="cls-1" d="M309.3,220.38c-1.7-8.03-9.49-8.9-16.64-9.24-5.35-.42-8.41.91-12.7.29-2.79-.35-5.2-1.57-8.28-2.13-2.1-.39-4.5-.54-6.71-.73-1.73-.14-3.46-.26-5.19-.37-4.55-.52-8.29.4-10.28-2.9-1.24-3.69.51-7.86.84-11.71.94-6.45,2.31-13.3.86-19.67-1.33-6.41-7.31-9.19-13.38-8.68-3.69.19-7.7,1.04-10.23,3.91-2.81,3.09-3.21,8.74-3.33,13.23.03,3.83,1.16,7.38.39,11.08-.99,4.9-4.35,10.64-10.56,10.17-6.66-.24-15.12-2.84-20.38,2.37-3.71,4.03-5.46,13.75-1.39,17.74,5.95,5.71,15.65,5.59,23.52,5.14,6.38-.33,12.85.2,18.95,1,6.58,1.21,13.87.96,20.62,1.02,5.1.17,9.03,1.39,14.32,2.52,13.27,1.68,44.53,10.97,39.63-12.83l-.05-.19Z"/>
        <path class="cls-3" d="M294.25,239.57c-6.13,0-12.8-1.17-18.43-2.15-2.4-.42-4.66-.81-6.48-1.05l-.25-.04c-1.24-.27-2.41-.54-3.53-.8-3.56-.83-6.63-1.54-10.26-1.66-1.12,0-2.32-.01-3.54-.01-5.8,0-11.79-.01-17.45-1.04-7.18-.94-13.01-1.24-18.33-.96-6.43.37-18.43,1.07-25.75-5.97-5.68-5.58-3.14-17.15,1.26-21.94l.1-.1c5.08-5.04,12.29-4.25,18.09-3.62,1.6.17,3.11.34,4.5.39h.12c5.58.43,7.23-6.93,7.4-7.77.39-1.86.16-3.76-.1-5.95-.17-1.43-.34-2.92-.35-4.51v-.1c.15-5.7.75-11.48,4.11-15.17,2.64-2.98,6.65-4.59,12.25-4.88,8.36-.68,15,3.75,16.52,11.06,1.4,6.13.44,12.41-.49,18.47-.11.73-.22,1.45-.33,2.16-.12,1.36-.39,2.7-.64,3.99-.44,2.24-.86,4.37-.43,6.07.59.74,1.58.88,4.43.99,1.01.04,2.16.08,3.37.22,1.72.11,3.45.23,5.17.37l1.21.1c1.93.16,3.93.32,5.81.67,1.61.29,3.06.75,4.33,1.15,1.37.43,2.55.8,3.78.96,1.89.27,3.52.11,5.42-.09,2-.21,4.27-.44,7.14-.21,5.89.28,17.02.8,19.32,11.56l.06.25c1.33,6.48.34,11.48-2.94,14.88-3.48,3.59-9.02,4.73-15.08,4.73ZM270.22,230.44c1.94.25,4.22.65,6.63,1.07,9.32,1.63,23.4,4.09,28.18-.85,1.82-1.88,2.28-5.05,1.39-9.44l-.05-.22c-1.12-5.27-5.73-6.48-13.85-6.86-2.43-.19-4.33,0-6.16.2-2.1.22-4.27.44-6.84.07-1.7-.21-3.26-.7-4.76-1.18-1.22-.38-2.37-.74-3.63-.97-1.58-.3-3.43-.45-5.21-.59l-1.22-.1c-1.69-.13-3.41-.26-5.12-.36h-.16c-1.01-.13-2.02-.17-2.99-.21-3.37-.13-7.18-.27-9.51-4.14l-.17-.28-.1-.31c-1.09-3.27-.44-6.57.14-9.49.24-1.22.47-2.37.56-3.43l.02-.18c.11-.76.23-1.52.35-2.29.84-5.51,1.71-11.21.55-16.28-1.09-5.25-6.18-6.7-10.21-6.36h-.1c-3.93.2-6.59,1.15-8.14,2.91-2.33,2.56-2.51,8.62-2.58,11.27.01,1.24.16,2.49.31,3.8.29,2.49.59,5.06.02,7.86-1.33,6.63-6.07,13.09-13.66,12.56-1.59-.06-3.26-.24-4.88-.42-5.2-.57-10.12-1.1-13.18,1.87-2.84,3.15-4.11,10.9-1.45,13.52,4.99,4.8,13.58,4.73,21.25,4.28,5.73-.3,11.92.02,19.51,1.02l.15.02c5.15.95,10.89.95,16.45.96,1.23,0,2.46,0,3.66.01,4.28.14,7.78.95,11.48,1.81,1.06.25,2.15.5,3.31.75Z"/>
      </g>
      <g>
        <path class="cls-1" d="M269.01,278.56c1.84-9.51-.82-21.5-9.9-26.4-5.42-2.57-11.31-4.5-17.24-5.36-6.19-.39-11.93,3.53-16.37,7.55-4.46,3.6-7.34,8.83-8.28,14.47-.44,4.47-.44,9.53,1.78,13.58,2.85,4.43,6.02,8.69,10.08,12.11,4.94,4.2,11.76,2.07,17.61,1.3,4.68-.64,9.25-2.08,13.36-4.49,4.99-2.55,8.42-6.65,8.93-12.58l.02-.19ZM247.27,275.37c-1.71,2.22-6.33,3.28-8.62,1.27-2.06-1.77-2.92-4.99-1.2-7.27,3.95-6.21,13.26-.34,9.9,5.86l-.09.14Z"/>
        <path class="cls-3" d="M236.85,300.04c-3.36,0-6.76-.73-9.7-3.23-4.73-3.99-8.18-8.92-10.66-12.78l-.11-.18c-2.77-5.07-2.55-11.17-2.13-15.32l.03-.19c1.08-6.5,4.37-12.27,9.28-16.26,6.57-5.94,12.61-8.63,18.5-8.27l.24.03c5.99.87,12.08,2.76,18.1,5.61l.14.07c10.63,5.73,13.38,19.29,11.44,29.51v.04c-.58,6.52-4.2,11.67-10.47,14.9-4.25,2.48-9.09,4.1-14.39,4.83-.96.13-1.92.29-2.9.45-2.28.38-4.81.8-7.35.8ZM221.58,280.88c2.25,3.48,5.34,7.9,9.43,11.35,3.07,2.61,7.5,1.88,12.21,1.1,1.05-.17,2.08-.34,3.08-.48,4.53-.62,8.66-2.01,12.24-4.11l.15-.08c4.47-2.28,6.92-5.7,7.3-10.16l.07-.51c1.62-8.38-.72-19-8.31-23.15-5.34-2.52-10.93-4.27-16.19-5.04-4.19-.23-8.77,2-14.05,6.79l-.13.11c-3.78,3.05-6.33,7.5-7.18,12.53-.33,3.32-.52,8.09,1.39,11.65ZM241.88,280.71c-2.04,0-3.86-.63-5.21-1.82-3.41-2.93-4.15-7.84-1.68-11.23,2.93-4.5,8.03-4.75,11.58-2.66,3.66,2.16,6.02,6.85,3.42,11.65l-.35.54c-1.43,1.87-4.03,3.19-6.76,3.46-.34.03-.67.05-1,.05ZM242,269.72c-.67,0-1.41.29-2.02,1.26l-.14.2c-.68.9-.15,2.4.76,3.18.25.22.82.41,1.7.33,1.11-.11,2.08-.6,2.5-1.04.98-2.07-1.03-3.33-1.27-3.47-.33-.19-.89-.46-1.53-.46Z"/>
      </g>
    </g>
    <g>
      <path class="cls-1" d="M427.7,210.54c-18.31-13.26-21.59,16.38-39,.23-6.59-6.31-13.58-12.58-21.94-16.44-8.7-4.29-18.89-1.86-25.13,5.43-5.12,5.96-12.23,13.27-7.97,21.12,1.94,3.63,6.18,6.75,10.01,6.84,3.82.15,7.16-2.45,10.09-4.82,9.39-8.74,17.14-.52,24.42,6.06,5.73,5.15,12.55,10.74,20.2,11.67,9.22.92,19.51.41,25.46-7.85,4.66-6.02,11-15.88,4-22.12l-.14-.12Z"/>
      <path class="cls-3" d="M404.47,243.96c-2.25,0-4.42-.15-6.39-.35-8.64-1.05-15.83-6.96-21.91-12.42-.46-.42-.92-.84-1.39-1.26-7.57-6.92-12.54-10.85-19-4.84l-.15.13c-2.79,2.27-7.02,5.67-12.09,5.49-4.69-.11-9.98-3.65-12.53-8.42-4.97-9.17,2.14-17.36,7.34-23.35l1-1.15c7.2-8.42,19.02-10.96,28.72-6.17,8.87,4.1,16.36,10.91,22.69,16.96,7.07,6.56,10.31,4.26,15.69.45,5.19-3.67,12.3-8.69,23-.95l.35.29c6.55,5.85,5.34,14.65-3.57,26.18-5.53,7.64-14.14,9.38-21.76,9.38ZM361.98,216.07c6.53,0,12.25,5.23,16.85,9.43.45.41.9.83,1.35,1.23,5.39,4.84,11.72,10.08,18.56,10.92,11.54,1.15,18.54-.89,22.67-6.62l.06-.08c10.04-12.99,5.78-16.8,4.37-18.05h0c-7.16-5.14-10.84-2.54-15.92,1.06-5.31,3.76-12.59,8.9-23.25-.99-6.28-6.02-13.06-12.18-21.16-15.92-7.32-3.61-16.17-1.68-21.6,4.66l-1.02,1.18c-5.61,6.46-9.37,11.44-6.59,16.56,1.53,2.86,4.87,5.22,7.45,5.28,2.66.1,5.21-1.79,8.05-4.09,3.56-3.29,6.97-4.56,10.19-4.56Z"/>
    </g>
  </g>
</svg>