<?xml version="1.0" encoding="UTF-8"?>
<svg id="Layer_1" xmlns="http://www.w3.org/2000/svg" viewBox="0 0 600 465" width="100%" height="100%" preserveAspectRatio="xMidYMid meet">
  <defs>
    <style>
      .cls-1 {
        fill: #342f28;
      }

      .cls-2 {
        fill: #fbd125;
      }

      .cls-3 {
        fill: #50473b;
      }

      .cls-4 {
        fill: #f58a33;
      }

      .cls-5 {
        fill: #ffdf22;
      }

      .cls-6 {
        fill: #e57725;
      }

      .cls-7 {
        fill: #fde88d;
      }
    </style>
  </defs>
  <path class="cls-5" d="M344.43,54.36c9.57-17.22-.83-40.73-17.14-49.79-11.05-6.26-24.79-5.69-36.26-.67-20.45,8.13-36.5,34.12-20.53,53.23l.12.14c1.3,1.42,2.72,2.68,4.25,3.81h63.79c2.26-1.84,4.23-4.05,5.78-6.71Z"/>
  <path class="cls-5" d="M324.92,3.36c-10.38-4.84-22.7-4.15-33.23.26-11.35,7.85-37.24,30-16.27,57.45h61.48c18.75-28.9-4.32-51.39-11.99-57.71Z"/>
  <path class="cls-7" d="M327.28,4.56c-.77-.44-1.56-.84-2.36-1.21,9.84,4.67,29.39,30.94,7.46,57.71h6.27c2.26-1.84,4.23-4.05,5.78-6.71,9.57-17.22-.83-40.73-17.14-49.79Z"/>
  <path class="cls-2" d="M291.69,3.61c-.22.09-.45.18-.67.28-20.45,8.13-36.5,34.12-20.53,53.23l.12.14c1.3,1.42,2.72,2.68,4.25,3.81h7.22c-27.11-26.86-3.4-51.25,9.62-57.45Z"/>
  <path class="cls-3" d="M39.25,127.81c8.72-.19,18.15-.52,26.95-1.11,2.83-.15,6.23-.58,8.26,1.52,2.58,3.33,2.79,9.63-.25,12.81-4.99,4.2-15.16,1.73-21.71,2.68-6.99.64-14.06.73-21.13,1.22-3.97.35-8.65,1.17-10.72,4.96-1.28,2.16-1.36,4.77-1.24,7.23.2,4.12-.06,8.25,1.85,10.74,1.12,1.53,2.78,2.61,3.95,4.09,2.59,3.41,1.44,7.54,1.81,12.22.38,4.46-.68,9.13-.04,13.48,1.04,6.25,4.8,11.71,11.01,13.21,4.35,1.12,9.1,1.55,13.41.67,3.03-.58,5.99-1.47,9.06-1.78,5.07-.54,10.26.6,15.37.47,7.64-.11,14.87-2.41,22.5-2.19,9.32-.09,17.1-.08,16.92-11.83.34-7.67-2.23-13.43-10.31-12.86-10.71.23-20.81,1.41-31.48,1.52-3.54.1-7.84,1.22-10.75-1.14-2.88-2.61-3.22-9.37-1.37-12.39,2.22-3.44,7.03-4.07,10.96-4.5,5.31-.39,9.71,1.05,15.38,1.11,13.61.37,30.72-.13,25.31-18.98-1.58-5.04-4.19-9.34-3.52-14.93.21-4.52-.31-9.12.16-13.62.27-2.98.52-6.19-.6-8.94-4.81-10.37-14.64-13.16-25.32-11.13-10.87,2.35-21.98.74-32.95,2.03-5.85.76-11.64,1.72-17.3,3.28-3.13.87-6.88,1.35-9.04,3.94-2.38,2.98-2.69,8.09-1.07,11.7,1.27,2.81,3.97,4.45,6.85,5.81,2.94.72,6.02.81,9.02.72Z"/>
  <path class="cls-3" d="M189.86,202.82c-.79-5.66-2.24-11.37-2.78-17.11-.99-9.46,1.1-17.53-.35-26.87-.32-3.72-1.23-7.45-1.67-11.14-.68-6.46,2.3-12.05,2.52-18.69,1.2-15.23,6.06-42.96-16.97-42.21-6.9.44-14.83,1.28-19.99,6.23-4.37,4.63-2.97,11.88-2.97,17.77-.09,18.32,1.87,37-.54,55.29-.77,5.46.93,10.62,1.14,15.95.16,2.96-.35,6.16-.53,9.91-.09,2.8.17,5.64.06,8.44-.18,4.7-.68,8.96.4,13,1.11,4.86,4.82,9.12,9.64,10.53,3.5,1.07,7.46.64,11.4.88,4.71.15,10.23.71,14.01-2.56,4.95-4.94,7.29-12.32,6.64-19.24l-.02-.18Z"/>
  <path class="cls-3" d="M384.93,167.41c-2.17-7.74-8.15-10.11-15.54-9.81-13.69.06-27.41.16-41.09.23-1.63,0-3.53-.09-4.94-.57-5.16-1.81-3.35-8.28-4.45-12.59-1.88-9.58,2.07-15.03,9.93-19.85,6.3-4.21,9.68-.14,14.52,4.21,7.99,7.12,14.91,14.74,25.3,5.78,6.69-5.29,7.35-13.04,1.63-19.08-3.08-3.43-6.96-6.16-10.85-8.64-2.52-1.57-5.04-3.13-6.67-5.16-2.63-3.1-3.51-7.21-3.98-11.59-2.39-14.5,15.61-6.64,21.82-14.32,2.53-2.92,2.7-7.82,1.87-12.17-.8-5.41-4.34-10.14-10.22-10.51-19.53-.59-39.14.66-58.68.11-4.37-.08-8.77-.58-13.15-.63-5.91.18-11.41.52-17.27.19-2.51-.12-5.04-.02-7.55.14-7.85.59-17.83-1.84-23.47,4.74-2.31,2.82-1.7,6.63-1.93,10.28-.09,1.59-.26,3.25-.09,4.81.95,7.91,13.93,6.91,18.73,10.01,4.59,3.05,3.17,10.58.86,14.69-2.03,2.99-5.19,5.41-7.28,7.95-2.07,2.45-3.35,5.12-6.01,7.84-8.3,8.07-9.94,14.12-1.85,23.4,5.7,6.73,14.08,6.91,19.83.19,4.25-5.16,7.17-11.38,13.73-13.53,5.26-1.92,9.31,2.35,13.31,6.42,1.46,1.55,3.1,3.32,3.39,5.46.32,2.93-1.79,5.51-2.79,8.18-1.84,4.68-.75,9.86-5.03,12.9-5.55,3.74-11.99,1.21-18.34,1.21-4.16-.02-8.36.5-12.51.36-4.32-.19-8.26-1.06-12.06-.46-4.47.79-9.49,2.57-12.15,6.42-2.39,3.76-.98,9.65-1.71,13.98-.66,5.67,2.04,8.49,7.06,10.24,8.99,3.66,14.21,4.01,23.48,1.74,5.06-.94,10.1-.61,15.08-1.29,3.25-.44,6.54-.66,9.79-.33,5.33.7,10.99.91,16.49.27,5.62-.12,11.24-.97,16.79-1.66,4.41-.28,7.54,1.08,12.19,1.72,13.4.35,27.42,2.72,40.3.91,13.9-1.79,17.24-8.89,13.57-22.03l-.06-.19ZM312.01,106.97c-4.65,8.44-11.27,4.17-14.12-3.41-1.37-3.56-1.65-7.4-2.22-11.16-.48-3.3-.93-7.18.34-9.78,2.37-4.81,9.37-5.33,13.98-4.47,5.92,1.76,5.02,8.87,5.13,14.23-.1,5.01-.44,10.22-3,14.42l-.1.17Z"/>
  <path class="cls-3" d="M345.94,219.18c-2.11-6.91-8.72-9.82-15.71-10.38-4.59-.45-9,.75-13.55.75-6.89.09-14.06-3.03-20.93-1.03-3.95,1.04-7.93.22-11.95.39-4.03.39-7.86,1.59-10.7,3.99-3.36,3.14-3.97,8.57-2.99,12.92.73,3.05,2.96,5.09,6.08,6.17,7.17,2.01,14.15,2.02,21.48,2.24,5.33.74,14.03-1.39,14.76,5.65.16,3.22-.74,6.47-1.36,9.66-1.8,14.08,4.85,17.3,17.64,16.88,6.1.34,14.06.49,15.19-6.81.68-4.81.21-9.65,1.18-14.65.61-3.39.76-6.83.96-10.25.47-5.31,1.57-10.43-.03-15.38l-.05-.15Z"/>
  <path class="cls-3" d="M441.64,90.58c-5.83.09-13.67-.37-17.93,3.87-2.61,2.45-3.5,6.64-2.44,10.01,1.49,4.51,6.6,5.83,10.81,6.45,9.74,1.43,20.33.87,30.19,1.96,4.98.72,6.02,6.28,4.42,10.25-1.96,5.35-9.29,4.16-13.97,3.74-5.96-.36-11.42-.47-17.23-.55-6.43-.28-16.18-2.2-19.12,5.28-4.75,15.65,4.97,14.19,3.85,25.83-1.62,14.58-3.96,26.84,14.73,29.04,4.95.36,9.6-.73,14.39-.47,4.39.14,8.72,1.33,13.11,1.53,6.01.29,11.86-.47,17.91-.16,3.28.09,6.75.54,9.97-.06,7.71-1.05,8.9-12.84,5.73-17.87-3.6-4.49-10.42-3.29-15.5-3.87-6.13-.21-12.78-.31-18.99-.74-2.61-.13-5.37.03-7.64-.99-4.5-2.03-4.25-9.51-.98-12.51,6-4.49,13.85-1.51,20.65-.69,8.9.74,24.27,4.79,25.94-7.81.59-4.46-.94-8.98-1.63-13.34-.84-4.84-.46-9.53.04-14.58,1.13-9.66-.46-19.94-10.83-23.4-5.08-1.76-10.66-.69-16.05-.41-7,.45-13.95-.96-20.92-1.45-2.87.07-5.65.85-8.53.95Z"/>
  <path class="cls-3" d="M561.74,212.5c-2.7-6.4-9.27-8.43-15.94-8.22-4.39.08-8.48,1.63-12.78,2.22-5.86,1.04-12.33-1.09-18.19.74-3.97,1.47-8.04,1.74-12.23,2.11-3.58.48-7.26,2.07-9.61,4.2-3.49,3.21-3.59,8.85-2.11,13.18,1,2.77,3.24,4.52,6.21,5.26,7.07,1.28,13.78.47,20.82-.08,5.07.12,12.75-2.69,14.33,3.71.56,3.1.02,6.36-.22,9.53-.17,14.1,6.99,15.76,19.12,14.07,4.17-.38,9.32-.49,11.82-4.39,2.48-4.56.05-11.72.65-17.1.33-4.67-.26-9.37-.18-13.89.13-3.72-.24-7.88-1.63-11.19l-.06-.14Z"/>
  <path class="cls-3" d="M590.21,166.92c-.33-4.45-1.41-8.99-2.06-13.44-.88-7.1-.5-13.19-.25-20.04.58-7.79-2.49-16.35-1.75-24.26.31-4.37,2.37-9.09,2.73-13.89,1.91-18.98-6.77-28.39-26.13-23.04-5.79,1.46-9.93,4.77-10.88,10.36-1.07,4.95.76,10.83-2.46,15-1.97,2.52-5.42,3.1-8.51,3.35-6.36.58-13.01.69-16.87,4.97-3.92,4.38-3.28,11.51.19,16.16,2.27,2.95,5.76,4.63,9.61,5.17,4.56,1.1,13.32-2.2,16.03,2.13,1.12,1.86,1.11,5.29-.23,7.92-1.63,3.75-5.59,5.27-9.47,5.53-4.93.57-10.08.67-13.91,3.09-4.83,3.04-5.79,9.41-4.63,14.67.94,5.06,4.4,8.98,9.21,10.41,3.96,1.48,8.95.52,12.22-.79,2.57-.73,4.19-1.5,5.76-.24,3.69,4.57,3.54,12.13,9.16,15.37,4.61,3.13,10.9,2.54,16.54,2.74,3.2-.06,6.65-.39,9.2-2.4,5.01-4.24,7.09-12.02,6.53-18.59v-.17Z"/>
  <path class="cls-3" d="M77.55,411.18c-2.03-.71-4.28-1-6.44-1.15-5.85-.37-12.43-.89-18.78-1.11-5.86-.38-16.63.08-15.5-8.44,1.31-6.94,8.11-6.18,15.1-5.64,3.82.28,7.68.5,11.5.85,3.48.28,6.89.26,9.49-1.02,7.75-3.38,9.09-19.95,1.09-23.98-2.71-1.58-6.04-1.38-9.04-1.29-3.86.1-6.87.12-11.42-.69-3.93-.8-10.56.13-12.58-3.49-2.17-3.63-.47-9.55,3.26-11.63,4.91-2.37,13.62.74,19.72.92,6.92.63,16.12,2.59,21.34-2.3,4.42-4.36,4.24-12.9.64-17.45-4.02-5.06-12.17-3.42-17.61-3.61-6.4-.27-12.73-1.78-19.27-1.79-9.21-.67-18.38-1.47-27.46-1.68-12.53-1.27-22.1-.88-21.58,14.65.48,5.51,4.23,9.45,4.76,15.02.34,10.6-1.91,21.19-2.4,31.8-.36,5.21-.32,10.45-.52,15.67-.99,12.57-2.9,24.17,12.28,27.95,5.54,1.27,11.07.45,16.52.61,5.01-.07,10.05,1.29,15.03,1.39,6.59-.19,11.86-1.48,18.95-.26,2.8.43,5.78.86,8.58.54,4.65-.38,8.17-3.04,9.43-7.35,1.77-6.01,1.72-14.22-4.96-16.47l-.15-.05Z"/>
  <path class="cls-3" d="M199.68,351.2c-.32-9.41,1.77-20.31-1.44-29.37-2.73-7.71-11.44-9.65-18.2-9.72-9.25-.15-16.06,4.64-17.6,15.37-.55,5.36-.26,10.57.63,16.2.58,3.3,1.05,6.63,1.11,10,.28,6.98,0,13.55.13,20.43.46,6.21,1.6,12.58,1.35,18.59-.03,6.72-1.89,13.5-2.2,20.34-.52,9.44-1.84,20.21,2.16,28.79,5.2,10.86,19.7,9.86,27.79,4.86,6.42-4.09,7.31-13.8,5.99-21.22-1.2-6.5-1.67-11.18-.94-16.84.3-2.5.85-5.24,1.02-7.85.3-6.97-.32-14.16.31-21.15.8-9.4.2-19.33-.1-28.25v-.17Z"/>
  <path class="cls-3" d="M150.8,408.41c-.05-5.16,0-9.96.29-15.06.58-7.7-2.28-17.06-1.79-24.69.22-3.18,1.02-6.08,1.61-9.23.89-5.41,1.16-11.49,1.54-17.09.53-10.62-.82-26.08-12.44-27.46-5.95-.62-13.11.48-18.18,3.9-4.51,3.26-4.87,8.85-4.66,14.86.04,1.91.03,3.85.14,5.75.26,5.62,2.36,8.1,2.18,12.45-.07,1.73-.82,3.96-1.28,5.79-1.65,7.7-1.74,11.29-9.25,13.07-5.68.97-10.46,3.68-11.31,10.68-.88,7.08,1.43,15.09,7.75,17.71,3.38,1.78,9.42,2.43,11.21,5.89,1.97,4.39.47,9,.59,14.55-.02,1.88-.08,3.8-.14,5.66-.52,8.16.42,17.47,7.84,20.96,3.87,1.78,9.27,1.21,13.45,1.51,6.6.29,10.27-2.14,12.84-8.57,4.63-9.67.43-20.41-.38-30.5v-.18Z"/>
  <path class="cls-3" d="M273.41,397.01c5.26,4.92,10.97,2.55,15.67-1.48,4.17-3.44,8.58-6.78,12.26-11.08,1.98-2.25,3.66-4.87,5.62-7.08,8.36-10.21,15.09-7.33,24.57.04,6.07,4.25,12.12,8.56,18.29,12.66,5.37,3.87,12.57,5.77,18.35,1.47,7.05-4.74,9.86-13.58,3.7-20.32-5.56-6.16-12.38-9.46-19.25-14.45-3.52-2.77-8.07-5.21-11.24-8.13-3.17-3.17-4.38-7.25-4.7-11.73-.33-3.22-.92-6.23-1.23-9.63-.59-10.13-2.19-16.56-13.51-17.49-9-1.35-19.56.65-20.96,11.02-.83,4.95.65,11.04-.56,15.95-.55,2.51-1.97,4.65-3.56,6.61-3.36,4.04-7.04,7.51-9.94,11.96-10.82,14.49-34.2,22.14-13.66,41.57l.15.13Z"/>
  <path class="cls-3" d="M394.23,441.84c-3.07-11.78-16.99-13.2-27.1-11.79-8.13,1.14-12.92.68-20.55-1.1-10.99-1.85-22.44-.65-33.41-2.46-10.86-1.57-21.42-.56-32.29-1.38-10.39-.48-25.28-3.81-34.22,1.04-6.07,3.93-8.37,12.48-7.52,19.44.6,5.01,2.98,8.34,7.49,10.84,9.41,5.01,20.62,3.29,30.86,2.52,12.29-.94,23.41,1.57,35.67,1.18,6.39-.47,12.86-.64,19.17.07,14.04,2.19,29.4,5.17,43.81,4.74,14.03-.23,21.78-8.95,18.13-22.93l-.06-.19Z"/>
  <path class="cls-3" d="M466.48,334.96c4.97,5.36,4.05,13.06,5.15,20.26.79,9.12,3.01,18.18,4.13,27.2.4,4.11,1.04,7.76,2.31,11.51,1.8,5.41,7.83,8.76,13.55,9.02,7.84.54,14.8-2.98,22.47-3.49,2.24-.23,4.55-.27,6.81-.42,7.09-.61,11.5-3.68,18-4.29,5.24-.49,13.2-.18,17.15-4.09,4.82-4.18,3.67-16.74-1.53-20.34-4.58-2.99-11.81-.82-17.3-.28-8.03,1.07-16.56,2.75-24.73,3.44-7.94.5-8.65-5.66-1.78-8.14,3.55-1.17,7.23-1.3,10.97-1.85,5.91-.96,11.86-2.02,17.84-2.57,3.84-.48,8.04-.71,10.95-2.4,6.07-3.34,5.68-11.63,3.92-17.42-2.06-7.06-8.76-8.98-15.15-6.72-5.77,1.76-12.78,1.4-19.21,2.54-4.69.47-9.78,2.22-14.37,1.76-5.03-.5-5.1-5.54-1.95-8.31,4.72-3.84,11.87-2.52,17.99-3.27,4.32-.4,8.74-.73,13.07-1.25,5.89-.82,11.84-2.06,14.11-7.52,1.79-4.59.24-10.82-2.69-14.41-3.2-3.79-8.77-3.88-13.39-2.47-6.15,1.93-11.9,1.94-18.63,2.51-10.1,1.73-20.72,2.52-30.68,4.33-6.6,1.41-15,.73-19.9,6.05-2.75,3.55-2.59,9.2-1.4,13.42.76,2.83,2.57,5.09,4.21,7.1l.09.11Z"/>
  <path class="cls-3" d="M597.75,426.13c-4.37-10.34-15.41-10.15-25.01-8.44-3.51.67-7,2.09-10.04,2.73-3.84.87-6.97.85-11.88.34-11.47-.72-23.22,2.73-34.72,2.62-6.73-.1-13.45.73-20.03,1.88-11.21,1.93-24.13,1.97-35.37,3.18-15.17,1.41-19.12,13.29-15.27,26.52,1.42,4.32,4.45,6.71,9.32,8.3,10.24,3.34,20.89-.51,31-2.7,11.21-2.51,21.44-1.91,32.64-3.6,6.79-1.33,13.64-3.18,20.53-3.3,4.82-.13,10.2.5,15.47.28,9.6-.53,19.61-.16,29.03-2.09,14.17-2.42,20.12-11.88,14.39-25.53l-.08-.18Z"/>
  <circle class="cls-1" cx="295.41" cy="25.52" r="2.58"/>
  <circle class="cls-1" cx="319.02" cy="29.87" r="2.72"/>
  <rect class="cls-4" x="298.21" y="32.95" width="14.77" height="3.64" rx="1.82" ry="1.82" transform="translate(3.54 -23.18) rotate(4.37)"/>
  <rect class="cls-4" x="297.94" y="36.59" width="14.77" height="3.64" rx="1.82" ry="1.82" transform="translate(3.81 -23.15) rotate(4.37)"/>
  <path class="cls-6" d="M311.01,37.14s0,0,0,0l-11.09-.85c-.07,0-.12-.07-.11-.13,0-.07.06-.12.13-.12l11.09.85c.07,0,.12.07.11.13,0,.07-.06.12-.12.12Z"/>
  <rect class="cls-1" x="291.29" y="18.97" width="8.24" height="1.7" rx=".66" ry=".66" transform="translate(4.99 -37.77) rotate(7.38)"/>
  <rect class="cls-1" x="317.06" y="23.34" width="8.39" height="1.68" rx=".66" ry=".66" transform="translate(13.65 -71.58) rotate(12.99)"/>
</svg>